<svg width="292" height="398" viewBox="0 0 292 398" fill="none" xmlns="http://www.w3.org/2000/svg">
<path d="M81.8428 396.099C66.9727 396.099 54.7355 391.429 46.4667 382.589C39.0065 374.622 35.0633 363.757 35.0633 351.182C35.0633 339.509 39.6585 329.829 48.3599 323.197C55.9956 317.373 66.2204 314.295 77.9372 314.295C87.7859 314.295 94.4686 317.178 101.546 320.238C110.041 323.905 119.664 328.061 138.201 328.061C141.129 328.061 143.505 330.437 143.505 333.365C143.505 336.293 141.129 338.669 138.201 338.669C117.47 338.669 106.311 333.848 97.3399 329.98C90.7762 327.146 85.5854 324.908 77.9372 324.908C62.3399 324.908 45.6768 331.81 45.6768 351.182C45.6768 372.666 59.1991 385.486 81.8428 385.486C127.676 385.486 190.987 348.831 191.626 348.461C194.153 346.988 197.406 347.834 198.886 350.367C200.365 352.899 199.513 356.147 196.98 357.626C194.284 359.2 130.516 396.099 81.8428 396.099Z" fill="#F7CA58"/>
<path d="M191.381 358.447C191.381 358.447 199.456 370.728 210.54 366.835C212.64 366.095 213.486 363.575 212.238 361.732L199.512 342.8C198.24 340.906 195.061 340.994 192.98 342.981L186.736 348.925C186.109 349.52 185.934 350.354 186.316 350.918L191.381 358.447Z" fill="#1A3F56"/>
<path d="M211.787 396.099C226.657 396.099 238.894 391.428 247.163 382.589C254.623 374.621 258.567 363.757 258.567 351.181C258.567 339.508 253.971 329.829 245.27 323.196C237.634 317.372 227.41 314.294 215.693 314.294C205.844 314.294 199.161 317.178 192.084 320.237C183.589 323.905 173.966 328.061 155.429 328.061C152.501 328.061 150.125 330.437 150.125 333.365C150.125 336.292 152.501 338.668 155.429 338.668C176.16 338.668 187.319 333.847 196.29 329.979C202.854 327.146 208.045 324.908 215.693 324.908C231.29 324.908 247.953 331.81 247.953 351.181C247.953 372.665 234.431 385.485 211.787 385.485C165.954 385.485 102.643 348.83 102.004 348.46C99.4774 346.987 96.2238 347.834 94.7443 350.366C93.2648 352.899 94.1174 356.146 96.6501 357.626C99.352 359.199 163.114 396.099 211.787 396.099Z" fill="#EA7F68"/>
<path d="M101.283 357.575C101.283 357.575 92.9262 370.283 81.5417 365.744C79.755 365.029 79.078 362.854 80.15 361.262L93.1519 341.928C94.4245 340.035 97.6029 340.122 99.6843 342.11L105.928 348.053C106.555 348.648 106.731 349.482 106.348 350.046L101.283 357.575Z" fill="#1A3F56"/>
<path d="M112.049 335.429C106.175 333.799 101.523 331.786 97.3481 329.987C90.7844 327.154 85.5936 324.916 77.9454 324.916C62.3481 324.916 45.685 331.818 45.685 351.189C45.685 372.673 59.2073 385.493 81.851 385.493C127.684 385.493 190.995 348.838 191.634 348.468C194.161 346.995 197.414 347.841 198.894 350.374C200.373 352.907 199.521 356.154 196.988 357.634C194.299 359.207 130.53 396.107 81.8573 396.107C66.9871 396.107 54.75 391.436 46.4811 382.597C39.021 374.629 35.0778 363.765 35.0778 351.189C35.0778 339.516 39.673 329.837 48.3744 323.204C56.0101 317.38 66.2349 314.302 77.9517 314.302C87.8003 314.302 94.4831 317.186 101.561 320.245C103.686 321.16 105.88 322.107 108.262 323.016" stroke="#1A3F56" stroke-width="1.8037" stroke-miterlimit="10" stroke-linecap="round" stroke-linejoin="round"/>
<path d="M138.584 366.527C117.645 357.512 102.317 348.641 102.01 348.46C99.4838 346.986 96.2302 347.833 94.7507 350.366C93.2712 352.898 94.1238 356.146 96.6564 357.625C97.7473 358.264 108.869 364.703 124.949 372.132" stroke="#1A3F56" stroke-width="1.8037" stroke-miterlimit="10" stroke-linecap="round" stroke-linejoin="round"/>
<path d="M183.777 334.787C188.636 333.289 192.642 331.559 196.284 329.985C202.848 327.152 208.038 324.913 215.687 324.913C231.284 324.913 247.947 331.816 247.947 351.187C247.947 372.671 234.425 385.491 211.781 385.491C198.246 385.491 183.194 382.294 168.675 377.78" stroke="#1A3F56" stroke-width="1.8037" stroke-miterlimit="10" stroke-linecap="round" stroke-linejoin="round"/>
<path d="M155.447 384.613C173.722 391.052 193.789 396.104 211.793 396.104C226.664 396.104 238.901 391.434 247.17 382.595C254.63 374.627 258.573 363.762 258.573 351.187C258.573 339.514 253.978 329.834 245.276 323.202C237.641 317.378 227.416 314.3 215.699 314.3C205.85 314.3 199.168 317.184 192.09 320.243C189.256 321.465 186.291 322.744 182.912 323.904" stroke="#1A3F56" stroke-width="1.8037" stroke-miterlimit="10" stroke-linecap="round" stroke-linejoin="round"/>
<path d="M160.35 344.8H133.286C123.438 344.8 115.451 336.813 115.451 326.964V304.922H178.192V326.964C178.185 336.813 170.199 344.8 160.35 344.8Z" fill="#94CAD4"/>
<path d="M160.35 344.8H133.286C123.438 344.8 115.451 336.813 115.451 326.964V304.922H178.192V326.964C178.185 336.813 170.199 344.8 160.35 344.8Z" stroke="#1A3F56" stroke-width="1.8037" stroke-miterlimit="10" stroke-linecap="round" stroke-linejoin="round"/>
<path d="M196.854 238.84C196.848 238.866 196.836 238.897 196.829 238.922C196.29 240.984 195.475 242.991 194.384 244.878L191.808 249.335C178.192 242.79 162.926 239.123 146.809 239.123C130.672 239.123 115.395 242.796 101.772 249.36L99.1892 244.884C98.1172 243.016 97.3085 241.047 96.7756 239.022C106.292 233.769 116.717 229.957 127.763 227.895C132.045 227.099 136.421 226.559 140.866 226.296C141.674 226.252 142.483 226.215 143.298 226.183C143.706 226.171 144.113 226.158 144.521 226.152C144.89 226.146 145.26 226.133 145.63 226.127C146.075 226.127 146.527 226.121 146.978 226.121C147.461 226.121 147.937 226.127 148.414 226.133C149.486 226.146 150.545 226.177 151.611 226.227C156.451 226.434 161.215 226.979 165.867 227.838C176.035 229.7 185.689 233.042 194.585 237.631C195.35 238.025 196.108 238.427 196.854 238.84Z" fill="white"/>
<path d="M191.814 249.335L180.981 268.098C176.699 275.527 168.775 280.097 160.193 280.097H133.38C124.804 280.097 116.887 275.52 112.592 268.098L101.772 249.354C115.401 242.79 130.678 239.116 146.809 239.116C162.926 239.122 178.198 242.79 191.814 249.335Z" fill="#F7CA58"/>
<path d="M105.684 256.131C104.367 256.695 103.063 257.291 101.772 257.911C98.8444 259.309 95.9982 260.851 93.2336 262.513C83.3285 268.468 74.4955 276.041 67.098 284.843C64.2331 281.433 61.5813 277.834 59.1677 274.073C67.8127 260.594 79.4919 249.235 93.2336 240.96C94.3432 240.289 95.4654 239.643 96.6063 239.016C96.6063 239.016 98.1172 243.016 99.1892 244.878L105.684 256.131Z" fill="#D4ECF1"/>
<path d="M122.798 277.645L92.8073 306.921C83.0715 300.997 74.3889 293.524 67.0981 284.848C74.4955 276.04 83.3286 268.473 93.2336 262.518C95.9983 260.857 98.8444 259.314 101.772 257.916C103.063 257.296 104.361 256.7 105.684 256.136L112.599 268.11C115.019 272.298 118.598 275.576 122.798 277.645Z" fill="#94CAD4"/>
<path d="M160.193 280.103H133.381C129.644 280.103 126.039 279.237 122.798 277.645L92.8073 306.921C108.549 316.501 127.036 322.024 146.809 322.024C166.638 322.024 185.163 316.469 200.936 306.846L170.932 277.564C167.653 279.2 163.992 280.103 160.193 280.103Z" fill="#D4ECF1"/>
<path d="M234.462 274.072C232.049 277.833 229.397 281.432 226.526 284.842C217.674 274.304 206.766 265.54 194.422 259.183C193.563 258.738 192.692 258.305 191.814 257.885C190.523 257.265 189.225 256.675 187.902 256.105L194.385 244.877C195.475 242.984 196.297 240.978 196.829 238.921C212.132 247.316 225.071 259.434 234.462 274.072Z" fill="#D4ECF1"/>
<path d="M226.526 284.842C219.266 293.487 210.621 300.928 200.936 306.84L170.938 277.557C175.07 275.489 178.587 272.235 180.981 268.098L187.909 256.105C189.225 256.675 190.529 257.265 191.821 257.885C192.698 258.305 193.57 258.732 194.428 259.183C206.766 265.546 217.674 274.304 226.526 284.842Z" fill="#94CAD4"/>
<path d="M196.836 238.922C196.296 240.985 195.482 242.991 194.391 244.878L180.981 268.098C176.699 275.527 168.775 280.097 160.193 280.097H133.38C124.804 280.097 116.887 275.521 112.592 268.098L99.1829 244.878C98.1109 243.01 97.3022 241.041 96.7693 239.016C106.286 233.763 116.711 229.951 127.757 227.889C132.039 227.092 136.415 226.553 140.859 226.29C141.668 226.246 142.477 226.209 143.292 226.177C143.699 226.165 144.107 226.152 144.514 226.146C144.884 226.14 145.254 226.127 145.624 226.121C146.069 226.121 146.52 226.115 146.972 226.115C147.454 226.115 147.931 226.121 148.407 226.127C149.479 226.146 150.539 226.177 151.605 226.221C166.982 226.923 181.489 230.954 194.416 237.624C195.174 238.013 195.933 238.414 196.685 238.828C196.735 238.866 196.785 238.897 196.836 238.922Z" fill="white"/>
<path d="M254.335 107.761C254.335 110.783 253.646 113.686 252.574 116.519C249.696 124.149 244.054 131.226 241.659 138.586C238.261 149.043 240.136 162.271 233.804 170.972C227.41 179.761 214.201 182.043 205.418 188.438C196.716 194.763 190.504 206.655 180.047 210.047C169.96 213.319 157.986 207.464 146.815 207.464C135.637 207.464 123.67 213.319 113.583 210.047C103.126 206.649 96.9135 194.763 88.2121 188.438C79.4229 182.037 66.2203 179.761 59.8259 170.972C53.4942 162.271 55.3624 149.043 51.9708 138.586C49.7578 131.778 44.7552 125.208 41.7398 118.218C40.2853 114.858 39.3011 111.391 39.3011 107.761C39.3011 96.5838 48.6921 87.0298 51.9708 76.943C53.607 71.9027 54.0208 66.2292 54.7166 60.7187L59.8259 44.5571C66.2203 35.768 79.4229 33.486 88.2121 27.0916C96.9135 20.7662 103.126 8.87382 113.583 5.48227C123.67 2.20357 135.637 8.06511 146.815 8.06511C157.993 8.06511 169.96 2.20984 180.047 5.48227C190.504 8.88009 196.716 20.7662 205.418 27.0916C214.201 33.4923 227.41 35.768 233.804 44.5571C240.136 53.2586 238.268 66.4862 241.659 76.943C244.938 87.0361 254.335 96.5901 254.335 107.761Z" fill="white"/>
<path d="M252.58 116.519C249.702 124.149 244.06 131.226 241.665 138.586C238.268 149.043 240.142 162.271 233.81 170.972C227.416 179.761 214.207 182.043 205.424 188.438C196.723 194.763 190.51 206.655 180.053 210.047C169.966 213.319 157.993 207.464 146.821 207.464C135.644 207.464 123.676 213.319 113.589 210.047C103.132 206.649 96.9197 194.763 88.2183 188.438C79.4291 182.037 66.2266 179.761 59.8322 170.972C53.5004 162.271 55.3686 149.043 51.9771 138.586C49.7641 131.778 44.7614 125.208 41.746 118.218C44.6235 110.589 50.2719 103.511 52.6667 96.1512C54.2966 91.1108 54.7104 85.4374 55.4062 79.9269L60.5217 63.7653C66.9162 54.9762 80.1187 52.6942 88.9079 46.2998C97.6093 39.9744 103.822 28.082 114.279 24.6905C124.366 21.4118 136.333 27.2733 147.511 27.2733C158.688 27.2733 170.656 21.418 180.743 24.6905C191.193 28.0883 197.412 39.9744 206.114 46.2998C214.897 52.7005 228.105 54.9762 234.5 63.7653C240.832 72.4667 238.963 85.6944 242.355 96.1512C244.562 102.966 249.571 109.536 252.58 116.519Z" fill="#D4ECF1"/>
<path d="M55.8827 276.806C29.5402 276.806 12.244 269.565 4.4892 255.291C-10.6192 227.488 17.1526 184.062 18.3438 182.225C19.6038 180.282 22.1992 179.73 24.1363 180.99C26.0797 182.25 26.6314 184.84 25.3713 186.783C25.3024 186.889 18.5506 197.39 13.5981 210.781C9.20351 222.654 5.33552 239.324 11.8553 251.304C18.0366 262.67 32.8503 268.437 55.8827 268.437C58.196 268.437 60.0704 270.311 60.0704 272.625C60.0704 274.938 58.196 276.806 55.8827 276.806Z" fill="#1A3F56"/>
<path d="M21.1335 190.737L16.1747 187.283C11.0466 183.71 9.78657 176.657 13.3536 171.529L19.1901 163.154L42.7178 179.541L36.8813 187.916C33.3205 193.044 26.2678 194.305 21.1335 190.737Z" fill="#F7CA58"/>
<path d="M44.5671 176.727C39.9218 177.88 34.8627 176.589 29.5403 172.884C31.4398 174.207 34.0477 173.736 35.3705 171.843C36.6932 169.944 36.223 167.336 34.3298 166.013C36.5365 167.549 39.7462 169.254 42.4733 168.615C44.8868 168.057 46.1469 165.825 46.1532 165.8L46.1281 165.85L53.5757 169.68C53.2936 170.245 50.5791 175.235 44.5671 176.727Z" fill="#1A3F56"/>
<path d="M31.941 173.637C34.2538 173.637 36.1288 171.762 36.1288 169.449C36.1288 167.136 34.2538 165.261 31.941 165.261C29.6282 165.261 27.7533 167.136 27.7533 169.449C27.7533 171.762 29.6282 173.637 31.941 173.637Z" fill="#EA7F68"/>
<path d="M29.5465 172.885C24.1175 169.104 21.0896 164.773 20.5504 160.002C19.8796 154.109 23.3589 150.065 23.7602 149.633L29.9728 155.25C29.7283 155.557 28.6187 157.118 28.8882 159.143C29.1766 161.356 31.0573 163.726 34.336 166.008C32.4365 164.685 29.8286 165.155 28.5058 167.048C27.1831 168.954 27.647 171.562 29.5465 172.885Z" fill="#1A3F56"/>
<path d="M165.892 228.553C165.892 236.897 157.353 243.667 146.821 243.667C136.289 243.667 127.751 236.897 127.751 228.553C127.751 228.327 127.757 228.114 127.77 227.895C133.995 226.735 140.421 226.127 146.984 226.127C153.435 226.127 159.748 226.716 165.873 227.838C165.885 228.07 165.892 228.308 165.892 228.553Z" fill="#EA7F68"/>
<path d="M132.265 257.141C130.566 257.141 129.193 255.768 129.193 254.069C129.193 252.308 127.45 250.878 125.312 250.878C123.174 250.878 121.432 252.314 121.432 254.069C121.432 255.768 120.059 257.141 118.36 257.141C116.661 257.141 115.288 255.768 115.288 254.069C115.288 248.922 119.783 244.735 125.312 244.735C130.841 244.735 135.336 248.922 135.336 254.069C135.336 255.768 133.963 257.141 132.265 257.141Z" fill="#1A3F56"/>
<path d="M175.276 257.14C173.578 257.14 172.205 255.767 172.205 254.068C172.205 252.307 170.462 250.878 168.324 250.878C166.186 250.878 164.444 252.313 164.444 254.068C164.444 255.767 163.071 257.14 161.372 257.14C159.673 257.14 158.3 255.767 158.3 254.068C158.3 248.922 162.795 244.734 168.324 244.734C173.853 244.734 178.348 248.922 178.348 254.068C178.348 255.767 176.969 257.14 175.276 257.14Z" fill="#1A3F56"/>
<path d="M138.201 266.161L146.627 273.132L155.441 266.161" stroke="#1A3F56" stroke-width="9.799" stroke-miterlimit="10" stroke-linecap="round" stroke-linejoin="round"/>
<path d="M234.462 274.072C215.969 302.91 183.62 322.024 146.815 322.024C110.01 322.024 77.6676 302.916 59.174 274.072C67.8189 260.594 79.4981 249.235 93.2399 240.959C108.887 231.537 127.224 226.121 146.815 226.121C163.973 226.121 180.16 230.277 194.422 237.631C210.772 246.056 224.589 258.676 234.462 274.072Z" stroke="#1A3F56" stroke-width="1.8037" stroke-miterlimit="10" stroke-linecap="round" stroke-linejoin="round"/>
<path d="M75.1224 295.418H61.6565C56.4344 295.418 52.1966 291.18 52.1966 285.958V262.644C52.1966 257.422 56.4344 253.184 61.6565 253.184H75.1224V295.418Z" fill="#EA7F68"/>
<path d="M75.1224 295.418H61.6565C56.4344 295.418 52.1966 291.18 52.1966 285.958V262.644C52.1966 257.422 56.4344 253.184 61.6565 253.184H75.1224V295.418Z" stroke="#1A3F56" stroke-width="1.8037" stroke-miterlimit="10" stroke-linecap="round" stroke-linejoin="round"/>
<path d="M236.117 276.806C262.46 276.806 279.756 269.565 287.511 255.29C302.619 227.487 274.847 184.062 273.656 182.225C272.396 180.281 269.801 179.73 267.864 180.99C265.92 182.25 265.368 184.839 266.629 186.782C266.698 186.889 273.449 197.39 278.402 210.78C282.796 222.654 286.664 239.323 280.145 251.303C273.963 262.669 259.15 268.437 236.117 268.437C233.804 268.437 231.93 270.311 231.93 272.624C231.93 274.938 233.804 276.806 236.117 276.806Z" fill="#1A3F56"/>
<path d="M270.867 190.738L275.825 187.284C280.953 183.711 282.213 176.658 278.646 171.53L272.81 163.155L249.282 179.542L255.119 187.917C258.68 193.045 265.732 194.306 270.867 190.738Z" fill="#F7CA58"/>
<path d="M247.433 176.727C252.078 177.881 257.137 176.589 262.46 172.884C260.56 174.207 257.952 173.737 256.63 171.844C255.307 169.944 255.777 167.336 257.67 166.013C255.464 167.549 252.254 169.255 249.527 168.615C247.113 168.057 245.853 165.825 245.847 165.8L245.872 165.85L238.424 169.681C238.706 170.245 241.421 175.235 247.433 176.727Z" fill="#1A3F56"/>
<path d="M260.059 173.636C262.371 173.636 264.246 171.761 264.246 169.448C264.246 167.136 262.371 165.261 260.059 165.261C257.746 165.261 255.871 167.136 255.871 169.448C255.871 171.761 257.746 173.636 260.059 173.636Z" fill="#EA7F68"/>
<path d="M262.454 172.884C267.883 169.104 270.911 164.772 271.45 160.001C272.121 154.108 268.641 150.065 268.24 149.632L262.027 155.249C262.272 155.556 263.381 157.117 263.112 159.142C262.824 161.355 260.943 163.725 257.664 166.007C259.564 164.684 262.172 165.154 263.494 167.048C264.817 168.953 264.353 171.561 262.454 172.884Z" fill="#1A3F56"/>
<path d="M216.878 295.419H230.344C235.566 295.419 239.804 291.181 239.804 285.959V262.644C239.804 257.422 235.566 253.184 230.344 253.184H216.878V295.419Z" fill="#EA7F68"/>
<path d="M216.878 295.419H230.344C235.566 295.419 239.804 291.181 239.804 285.959V262.644C239.804 257.422 235.566 253.184 230.344 253.184H216.878V295.419Z" stroke="#1A3F56" stroke-width="1.8037" stroke-miterlimit="10" stroke-linecap="round" stroke-linejoin="round"/>
<path d="M77.9371 314.301C87.7857 314.301 94.4685 317.185 101.546 320.244C103.671 321.159 105.866 322.106 108.248 323.015" stroke="#1A3F56" stroke-width="1.8037" stroke-miterlimit="10" stroke-linecap="round" stroke-linejoin="round"/>
<path d="M65.3176 315.611C69.2733 314.746 73.4987 314.301 77.9434 314.301" stroke="#1A3F56" stroke-width="1.8037" stroke-miterlimit="10" stroke-linecap="round" stroke-linejoin="round"/>
<path d="M51.5508 321.021C55.6006 318.545 60.2334 316.727 65.3113 315.611" stroke="#1A3F56" stroke-width="1.8037" stroke-miterlimit="10" stroke-linecap="round" stroke-linejoin="round"/>
<path d="M138.314 148.053H85.8801C83.9932 148.053 82.4572 146.523 82.4572 144.63C82.4572 129.452 94.7634 117.146 109.941 117.146H114.248C129.425 117.146 141.731 129.452 141.731 144.63C141.731 146.523 140.201 148.053 138.314 148.053Z" fill="#94CAD4"/>
<path d="M112.097 110.99C101.672 110.99 93.2212 102.54 93.2212 92.1142V84.0898C93.2212 77.9838 98.1675 73.0375 104.273 73.0375H119.921C126.027 73.0375 130.973 77.9838 130.973 84.0898V92.1142C130.973 102.54 122.523 110.99 112.097 110.99Z" fill="#94CAD4"/>
<path d="M117.464 105.68H106.731V122.518H117.464V105.68Z" fill="#94CAD4"/>
<path d="M181.408 81.0994H149.536C148.389 81.0994 147.454 80.1654 147.454 79.0181C147.454 69.7901 154.933 62.3112 164.161 62.3112H166.782C176.01 62.3112 183.489 69.7901 183.489 79.0181C183.489 80.1654 182.555 81.0994 181.408 81.0994Z" fill="white"/>
<path d="M165.472 58.5688C159.134 58.5688 153.999 53.4345 153.999 47.0965V42.2192C153.999 38.5079 157.009 35.4988 160.72 35.4988H170.23C173.941 35.4988 176.95 38.5079 176.95 42.2192V47.0965C176.944 53.4345 171.81 58.5688 165.472 58.5688Z" fill="white"/>
<path d="M168.738 55.3468H162.212V65.5841H168.738V55.3468Z" fill="white"/>
<path d="M103.528 79.4506C103.528 79.4506 110.342 86.9546 126.917 85.6005C126.917 85.6005 123.15 83.9455 121.495 81.6823C121.495 81.6823 129.331 83.1869 134.152 78.6669" stroke="#1A3F56" stroke-width="1.8037" stroke-miterlimit="10" stroke-linecap="round" stroke-linejoin="round"/>
<path d="M100.619 95.2053C99.5717 96.7538 97.7975 97.7756 95.7852 97.7756C92.5691 97.7756 89.955 95.1677 89.955 91.9454C89.955 88.7232 92.5629 86.1152 95.7852 86.1152C97.3963 86.1152 98.8507 86.7672 99.9039 87.8204" stroke="#1A3F56" stroke-width="1.8037" stroke-miterlimit="10" stroke-linecap="round" stroke-linejoin="round"/>
<path d="M111.683 95.368C110.668 95.368 109.847 94.5468 109.847 93.5312V90.24C109.847 89.2244 110.668 88.4031 111.683 88.4031C112.699 88.4031 113.52 89.2244 113.52 90.24V93.5312C113.52 94.5468 112.699 95.368 111.683 95.368Z" fill="#1A3F56"/>
<path d="M124.102 95.368C123.087 95.368 122.266 94.5468 122.266 93.5312V90.24C122.266 89.2244 123.087 88.4031 124.102 88.4031C125.118 88.4031 125.939 89.2244 125.939 90.24V93.5312C125.939 94.5468 125.112 95.368 124.102 95.368Z" fill="#1A3F56"/>
<path d="M107.283 98.6591C107.283 98.6591 108.154 104.408 116.36 102.784" stroke="#1A3F56" stroke-width="1.8037" stroke-miterlimit="10" stroke-linecap="round" stroke-linejoin="round"/>
<path d="M155.059 166.101H207.493C209.38 166.101 210.916 164.572 210.916 162.678C210.916 147.501 198.61 135.195 183.432 135.195H179.126C163.948 135.195 151.642 147.501 151.642 162.678C151.636 164.572 153.172 166.101 155.059 166.101Z" fill="#F7CA58"/>
<path d="M181.276 129.033C191.701 129.033 200.152 120.582 200.152 110.157V102.132C200.152 96.0263 195.206 91.0801 189.1 91.0801H173.452C167.346 91.0801 162.4 96.0263 162.4 102.132V110.157C162.4 120.582 170.851 129.033 181.276 129.033Z" fill="#F7CA58"/>
<path d="M186.642 123.722H175.91V140.561H186.642V123.722Z" fill="#F7CA58"/>
<path d="M186.655 113.253C187.702 114.801 189.476 115.823 191.488 115.823C194.704 115.823 197.318 113.215 197.318 109.993C197.318 106.771 194.711 104.163 191.488 104.163C189.877 104.163 188.423 104.815 187.369 105.868" stroke="#1A3F56" stroke-width="1.8037" stroke-miterlimit="10" stroke-linecap="round" stroke-linejoin="round"/>
<path d="M179 109.987C180.016 109.987 180.837 109.166 180.837 108.15V104.859C180.837 103.843 180.016 103.022 179 103.022C177.985 103.022 177.164 103.843 177.164 104.859V108.15C177.164 109.166 177.985 109.987 179 109.987Z" fill="#1A3F56"/>
<path d="M166.581 109.987C167.597 109.987 168.418 109.166 168.418 108.15V104.859C168.418 103.843 167.597 103.022 166.581 103.022C165.566 103.022 164.744 103.843 164.744 104.859V108.15C164.744 109.166 165.566 109.987 166.581 109.987Z" fill="#1A3F56"/>
<path d="M174.016 119.898C180.549 119.898 181.351 115.592 181.351 115.592" stroke="#1A3F56" stroke-width="1.8037" stroke-miterlimit="10" stroke-linecap="round" stroke-linejoin="round"/>
<path d="M156.275 101.593C156.275 101.593 163.008 102.533 171.352 95.8004C171.352 95.8004 178.085 102.264 188.855 100.646" stroke="#1A3F56" stroke-width="1.8037" stroke-miterlimit="10" stroke-linecap="round" stroke-linejoin="round"/>
<path d="M191.645 93.3431C191.645 93.3431 187.338 64.1232 205.782 72.6052C224.225 81.0872 191.645 93.3431 191.645 93.3431Z" fill="#F7CA58"/>
<path d="M165.052 137.213C165.052 137.213 170.6 143.25 182.831 143.25C195.068 143.25 199.306 137.702 199.306 137.702" stroke="#1A3F56" stroke-width="1.8037" stroke-miterlimit="10" stroke-linecap="round" stroke-linejoin="round"/>
<path d="M104.524 115.849V122.538L112.517 118.783L119.369 123.027V115.523" stroke="#1A3F56" stroke-width="1.8037" stroke-miterlimit="10" stroke-linecap="round" stroke-linejoin="round"/>
<path d="M52.4159 140.084C52.278 139.577 52.1275 139.081 51.9708 138.586C48.6984 128.499 39.3011 118.945 39.3011 107.768C39.3011 96.5899 48.6984 87.0359 51.9708 76.949C53.607 71.915 54.0208 66.2352 54.7166 60.731" stroke="#1A3F56" stroke-width="1.8037" stroke-miterlimit="10" stroke-linecap="round" stroke-linejoin="round"/>
<path d="M113.583 210.053C103.132 206.662 96.9135 194.769 88.2121 188.438C79.4229 182.043 66.2203 179.761 59.8259 170.972C56.8105 166.828 55.657 161.656 54.9047 156.24" stroke="#1A3F56" stroke-width="1.8037" stroke-miterlimit="10" stroke-linecap="round" stroke-linejoin="round"/>
<path d="M222.363 179.698C216.646 182.563 210.339 184.852 205.424 188.431C196.723 194.763 190.51 206.655 180.053 210.047C169.967 213.319 157.999 207.464 146.821 207.464C141.242 207.464 135.468 208.925 129.826 209.978" stroke="#1A3F56" stroke-width="1.8037" stroke-miterlimit="10" stroke-linecap="round" stroke-linejoin="round"/>
<path d="M243.314 134.467C242.675 135.834 242.117 137.201 241.665 138.586C238.274 149.037 240.142 162.271 233.81 170.972" stroke="#1A3F56" stroke-width="1.8037" stroke-miterlimit="10" stroke-linecap="round" stroke-linejoin="round"/>
<path d="M252.818 99.6553C253.752 102.282 254.335 104.971 254.335 107.767C254.335 112.588 252.586 117.115 250.329 121.503" stroke="#1A3F56" stroke-width="1.8037" stroke-miterlimit="10" stroke-linecap="round" stroke-linejoin="round"/>
<path d="M193.275 15.061C197.268 19.2801 201.03 23.9004 205.418 27.0976C214.207 33.492 227.41 35.7739 233.804 44.5631C240.136 53.2645 238.268 66.4922 241.659 76.9489C244.117 84.5156 250.016 91.7814 252.812 99.6553" stroke="#1A3F56" stroke-width="1.8037" stroke-miterlimit="10" stroke-linecap="round" stroke-linejoin="round"/>
<path d="M135.876 4.71095C137.437 4.89276 138.985 5.0056 140.527 5.0056C151.705 5.0056 163.672 -0.849677 173.759 2.42276C178.931 4.10286 183.069 7.86428 186.987 12.0018" stroke="#1A3F56" stroke-width="1.8037" stroke-miterlimit="10" stroke-linecap="round" stroke-linejoin="round"/>
<path d="M59.8259 44.5627C66.2203 35.7735 79.4229 33.4916 88.2121 27.0972C96.9135 20.7655 103.126 8.87313 113.583 5.48158C117.934 4.07105 122.629 4.35316 127.469 5.13679" stroke="#1A3F56" stroke-width="1.8037" stroke-miterlimit="10" stroke-linecap="round" stroke-linejoin="round"/>
</svg>
