<svg width="332" height="291" viewBox="0 0 332 291" fill="none" xmlns="http://www.w3.org/2000/svg">
<path d="M110.665 18.3744H79.3955C71.8601 18.3744 64.6886 21.6081 59.7007 27.2582L51.2345 36.8521H38.9201C31.0923 36.8521 23.6582 40.2648 18.557 46.2013L1.7738 65.723C-1.56734 69.6131 1.19506 75.6331 6.32013 75.6331H65.3627C62.6242 78.3716 64.5633 83.0611 68.4414 83.0611H128.421L110.665 18.3744Z" fill="#FFDF99"/>
<path d="M118.385 33.9942C118.385 33.9942 76.9434 22.7835 60.2974 62.191H125.181L118.385 33.9942Z" fill="#EA7F68"/>
<path d="M194.325 121.215C199.205 115.559 207.773 114.932 213.429 119.813C219.085 124.693 219.711 133.261 214.831 138.917C213.488 140.474 211.138 140.647 209.586 139.305C208.029 137.962 207.856 135.612 209.199 134.06C211.4 131.513 211.114 127.652 208.566 125.451C206.019 123.249 202.158 123.536 199.957 126.083C198.614 127.641 196.264 127.814 194.712 126.471C193.155 125.123 192.982 122.772 194.325 121.215Z" fill="#1A3F56"/>
<path d="M326.395 196.612L312.129 132.731L308.013 114.295C306.706 108.454 300.919 104.779 295.078 106.085L275.478 110.459L102.789 149.019L83.3034 153.368C77.4624 154.675 73.7812 160.468 75.0878 166.309L79.2702 185.032L93.3626 248.143L97.8195 268.1C99.1261 273.941 104.913 277.617 110.754 276.31L129.268 272.175L302.273 233.55L322.523 229.027C328.364 227.72 332.039 221.933 330.738 216.092L326.395 196.612Z" fill="#94CAD4"/>
<path d="M265.33 241.789L302.273 233.544L322.523 229.021C328.364 227.715 332.039 221.927 330.738 216.086L326.389 196.612L312.129 132.731L308.013 114.295C306.706 108.454 300.919 104.779 295.078 106.085L275.478 110.459L102.789 149.019L83.3034 153.368C77.4624 154.675 73.7812 160.468 75.0878 166.309L79.2702 185.032L93.3626 248.143L97.8195 268.1C99.1261 273.941 104.913 277.617 110.754 276.31L129.268 272.175L159.064 265.523" stroke="#1A3F56" stroke-width="1.8037" stroke-miterlimit="10" stroke-linecap="round" stroke-linejoin="round"/>
<path d="M322.29 202.613L308.025 138.726L303.908 120.29C302.601 114.449 296.814 110.774 290.973 112.08L271.374 116.454L98.6846 155.014L79.1986 159.363C73.3576 160.67 69.6764 166.463 70.983 172.304L75.1654 191.027L89.2578 254.138L93.7147 274.096C95.0213 279.937 100.809 283.612 106.65 282.305L125.163 278.171L298.168 239.545L318.418 235.022C324.259 233.716 327.934 227.928 326.634 222.087L322.29 202.613Z" fill="#94CAD4"/>
<path d="M261.231 247.784L298.174 239.539L318.424 235.016C324.265 233.71 327.94 227.922 326.639 222.081L322.29 202.607L308.025 138.72L303.908 120.284C302.601 114.443 296.814 110.768 290.973 112.075L271.374 116.448L98.6846 155.008L79.1986 159.358C73.3576 160.664 69.6764 166.458 70.983 172.299L75.1654 191.021L89.2578 254.133L93.7147 274.09C95.0213 279.931 100.809 283.606 106.65 282.299L125.163 278.165L154.959 271.512" stroke="#1A3F56" stroke-width="1.8037" stroke-miterlimit="10" stroke-linecap="round" stroke-linejoin="round"/>
<path d="M302.822 214.135C296.271 218.741 291.832 226.181 291.331 234.73L116.989 273.66C113.362 266.859 106.912 261.776 99.1619 259.992L84.079 192.483C90.1289 188.032 94.2814 181.129 95.0272 173.194L270.085 134.102V134.108C273.921 140.403 280.251 145.021 287.733 146.578L302.822 214.135Z" fill="white" stroke="#1A3F56" stroke-width="1.7281" stroke-miterlimit="10" stroke-linecap="round" stroke-linejoin="round"/>
<path d="M302.822 214.135C296.271 218.741 291.832 226.181 291.331 234.73L116.989 273.66C113.362 266.859 106.912 261.776 99.1619 259.992L84.079 192.483C90.1289 188.032 94.2814 181.129 95.0272 173.194L270.085 134.102V134.108C273.921 140.403 280.251 145.021 287.733 146.578L302.822 214.135Z" fill="white" stroke="#1A3F56" stroke-width="1.7281" stroke-miterlimit="10" stroke-linecap="round" stroke-linejoin="round"/>
<path d="M317.243 209.236L302.977 145.349L298.86 126.913C297.554 121.072 291.766 117.397 285.925 118.703L266.326 123.077L93.637 161.637L74.1511 165.986C68.31 167.293 64.6288 173.086 65.9354 178.927L70.1178 197.65L84.2103 260.761L88.6671 280.719C89.9737 286.56 95.761 290.235 101.602 288.928L120.116 284.794L293.121 246.168L313.37 241.645C319.211 240.339 322.887 234.551 321.586 228.71L317.243 209.236Z" fill="#D4ECF1"/>
<path d="M291.331 234.724L116.989 273.655C113.362 266.853 106.912 261.77 99.1619 259.986L84.079 192.477C90.1289 188.026 94.2814 181.123 95.0272 173.188L270.085 134.097V134.103C273.921 140.397 280.251 145.015 287.733 146.572L302.822 214.135C296.271 218.741 291.832 226.181 291.331 234.724Z" fill="white"/>
<path d="M263.426 201.958C270.712 201.958 276.618 196.052 276.618 188.766C276.618 181.481 270.712 175.575 263.426 175.575C256.141 175.575 250.235 181.481 250.235 188.766C250.235 196.052 256.141 201.958 263.426 201.958Z" fill="#94CAD4"/>
<path d="M256.177 254.413L293.121 246.168L313.37 241.645C319.211 240.339 322.887 234.551 321.586 228.71L317.237 209.236L302.971 145.349L298.854 126.913C297.548 121.072 291.76 117.397 285.919 118.703L266.32 123.077L93.6311 161.637L74.1451 165.986C68.3041 167.293 64.6229 173.086 65.9295 178.927L70.1119 197.65L84.2043 260.761L88.6612 280.719C89.9678 286.56 95.7551 290.235 101.596 288.928L120.11 284.794L149.905 278.141" stroke="#1A3F56" stroke-width="1.8037" stroke-miterlimit="10" stroke-linecap="round" stroke-linejoin="round"/>
<path d="M189.402 115.124C186.914 115.124 184.898 113.107 184.898 110.619V94.6536H193.907V110.619C193.907 113.107 191.89 115.124 189.402 115.124Z" fill="#1A3F56"/>
<path d="M205.476 100.93H173.335C167.059 100.93 161.975 95.8407 161.975 89.5702V78.8248H216.835V89.5702C216.835 95.8407 211.752 100.93 205.476 100.93Z" fill="#94CAD4"/>
<path d="M210.422 58.8974C210.422 58.8974 189.927 18.1594 107.515 15.1285C103.249 14.9734 100.498 19.6032 102.706 23.2606L123.892 58.3485L210.422 58.8974Z" fill="#1A3F56"/>
<path d="M269.106 61.3489L286.045 75.3578C286.045 75.3578 284.666 84.8203 279.476 90.0051H127.812H123.624L117.622 78.8123L147.376 68.7113L269.106 61.3489Z" fill="#D4ECF1"/>
<path d="M163.288 71.5635C163.288 72.8403 163.324 74.1051 163.401 75.364H139.464C139.393 74.1051 139.357 72.8403 139.357 71.5635C139.357 32.5975 172.219 1.00589 212.754 1.00589C216.824 1.00589 220.821 1.3221 224.711 1.9426C189.874 7.43161 163.288 36.5174 163.288 71.5635Z" fill="#D4ECF1"/>
<path d="M265.908 22.9143C264.822 25.3426 263.647 27.568 262.484 29.5369C259.274 35.002 256.279 38.4267 256.279 38.4267C244.137 30.9509 233.452 27.2041 224.717 25.4798C208.906 22.3535 199.503 25.8676 199.503 25.8676L206.12 75.3641H163.401C163.33 74.1052 163.288 72.8404 163.288 71.5636C163.288 36.5175 189.874 7.43171 224.711 1.93674C240.808 4.47242 255.145 12.0437 265.908 22.9143Z" fill="#94CAD4"/>
<path d="M286.152 71.5636C286.152 72.8404 286.116 74.1052 286.039 75.3641H265.181C265.252 74.1052 265.294 72.8404 265.294 71.5636C265.294 62.0354 263.325 52.9487 259.763 44.6615C258.803 42.4182 257.723 40.2345 256.529 38.1165C257.675 36.7442 262.347 30.9032 265.902 22.9083C269.333 26.3688 272.4 30.1634 275.037 34.2324C277.185 37.5318 279.052 41.0161 280.609 44.6555C284.189 52.9487 286.152 62.0354 286.152 71.5636Z" fill="white"/>
<path d="M265.3 71.5634C265.3 72.8402 265.264 74.105 265.186 75.3639H206.12L199.503 25.8674C199.503 25.8674 200.404 25.5273 202.129 25.1574C207.653 23.9641 221.615 22.401 241.035 30.539C245.802 32.5377 250.891 35.1152 256.279 38.4324C256.279 38.4324 256.368 38.325 256.535 38.1222C257.729 40.2402 258.803 42.4239 259.769 44.6672C263.331 52.9485 265.3 62.0352 265.3 71.5634Z" fill="#EA7F68"/>
<path d="M224.454 53.9684C221.871 55.3347 218.661 54.3442 217.295 51.7608L213.494 44.5714C212.128 41.988 213.119 38.7781 215.702 37.4119C218.285 36.0456 221.495 37.036 222.861 39.6194L226.662 46.8088C228.034 49.3982 227.044 52.6021 224.454 53.9684Z" fill="#1A3F56"/>
<path d="M280.621 44.6615L279.362 48.5873C278.461 51.3736 275.484 52.901 272.698 52.006C269.912 51.1111 268.384 48.1279 269.279 45.3417L271.767 37.6033C272.292 35.9686 273.545 34.7634 275.049 34.2383C277.191 37.5377 279.064 41.022 280.621 44.6615Z" fill="#1A3F56"/>
<path d="M257.55 63.9927C257.55 63.9927 263.003 57.0778 266.195 58.5395C269.387 60.0013 264.733 68.378 257.287 68.378C249.841 68.378 243.594 62.1312 246.249 59.0705C248.898 56.0277 257.55 63.9927 257.55 63.9927Z" fill="#1A3F56"/>
<path d="M196.001 76.6465C184.85 64.4753 157.417 43.6409 99.2156 41.5885C95.1107 41.4453 92.4975 45.932 94.6215 49.4461L114.483 82.3444C115.414 83.8896 117.085 84.8383 118.886 84.8442L192.129 85.3037C196.634 85.3335 199.044 79.9698 196.001 76.6465Z" fill="#94CAD4"/>
<path d="M184.152 66.1698C176.056 60.2751 164.797 54.1119 149.458 49.4105" stroke="#1A3F56" stroke-width="1.8037" stroke-miterlimit="10" stroke-linecap="round" stroke-linejoin="round"/>
<path d="M190.787 71.5157C188.859 69.7915 186.658 67.9956 184.152 66.1699" stroke="#1A3F56" stroke-width="1.8037" stroke-miterlimit="10" stroke-linecap="round" stroke-linejoin="round"/>
<path d="M273.181 89.8977H127.078" stroke="#1A3F56" stroke-width="1.8037" stroke-miterlimit="10" stroke-linecap="round" stroke-linejoin="round"/>
<path d="M193.758 248.906C218.659 248.906 238.845 228.72 238.845 203.819C238.845 178.918 218.659 158.731 193.758 158.731C168.857 158.731 148.67 178.918 148.67 203.819C148.67 228.72 168.857 248.906 193.758 248.906Z" fill="#D4ECF1"/>
<path d="M123.713 232.141C130.999 232.141 136.905 226.235 136.905 218.95C136.905 211.664 130.999 205.758 123.713 205.758C116.428 205.758 110.522 211.664 110.522 218.95C110.522 226.235 116.428 232.141 123.713 232.141Z" fill="#94CAD4"/>
<path d="M180.662 227.183C179.791 226.365 179.266 225.53 179.087 224.689C178.866 223.669 179.021 222.642 179.558 221.61C180.095 220.584 181.05 219.916 182.434 219.617C183.156 219.462 183.943 219.546 184.802 219.862C185.656 220.184 186.586 220.614 187.583 221.151C188.507 221.646 189.534 222.177 190.667 222.75C191.795 223.322 192.809 223.639 193.704 223.698C193.119 220.99 192.576 218.4 192.069 215.93C191.568 213.46 191.025 210.865 190.441 208.162L189.748 208.025C188.37 207.756 186.807 207.386 185.071 206.909C183.329 206.432 181.628 205.782 179.97 204.94C178.311 204.105 176.831 203.037 175.549 201.742C174.26 200.448 173.401 198.807 172.977 196.82C172.625 195.197 172.619 193.563 172.959 191.916C173.293 190.269 173.95 188.694 174.916 187.196C175.883 185.699 177.16 184.321 178.747 183.062C180.334 181.809 182.201 180.759 184.349 179.918L183.746 177.119C183.526 176.099 183.359 175.097 183.239 174.112C183.12 173.134 183.15 172.245 183.329 171.445C183.508 170.652 183.842 169.984 184.325 169.435C184.808 168.892 185.572 168.504 186.604 168.283C188.549 167.866 189.933 168.319 190.763 169.65C191.592 170.98 192.218 172.639 192.648 174.625C192.726 174.983 192.785 175.324 192.815 175.628C192.851 175.938 192.899 176.242 192.964 176.541L193.298 178.074C194.241 178.062 195.464 178.11 196.968 178.223C198.471 178.337 199.975 178.599 201.478 178.999C202.982 179.399 204.306 179.93 205.458 180.592C206.609 181.254 207.295 182.101 207.516 183.122C207.737 184.148 207.522 185.102 206.866 186.003C206.209 186.898 205.219 187.495 203.895 187.775C202.689 188.038 201.371 188.038 199.927 187.781C198.489 187.525 197.2 187.268 196.079 187.006L195.1 186.839C195.273 187.936 195.506 189.082 195.798 190.275C196.091 191.474 196.347 192.584 196.562 193.604L198.221 201.277C200.231 201.599 202.278 201.957 204.372 202.357C206.46 202.757 208.393 203.347 210.153 204.129C211.919 204.91 213.447 205.967 214.735 207.297C216.024 208.622 216.901 210.37 217.366 212.535C217.915 215.059 217.892 217.285 217.307 219.206C216.722 221.127 215.791 222.839 214.521 224.343C213.25 225.846 211.728 227.147 209.968 228.257C208.202 229.36 206.4 230.303 204.569 231.079C204.79 232.099 205.01 233.107 205.219 234.104C205.434 235.094 205.678 236.096 205.965 237.105C205.923 238.376 205.517 239.39 204.76 240.153C204.002 240.917 203.167 241.394 202.254 241.591C201.162 241.83 200.261 241.788 199.557 241.466C198.853 241.144 198.28 240.637 197.845 239.945C197.409 239.253 197.057 238.447 196.795 237.528C196.532 236.609 196.299 235.667 196.091 234.706C196.025 234.402 195.941 234.08 195.834 233.722C195.727 233.37 195.589 232.958 195.428 232.487C193.448 232.35 191.747 232.147 190.339 231.884C188.925 231.622 187.672 231.264 186.562 230.81C185.459 230.357 184.444 229.82 183.52 229.199C182.589 228.597 181.64 227.917 180.662 227.183ZM186.187 188.491C185.292 188.998 184.403 189.631 183.526 190.388C182.649 191.146 182.112 192.238 181.921 193.664C182.279 195.036 183.084 196.2 184.331 197.16C185.578 198.121 186.98 198.873 188.549 199.415L186.187 188.491ZM203.698 211.39C202.63 210.901 201.425 210.417 200.076 209.952C200.309 211.038 200.524 212.106 200.72 213.168C200.917 214.23 201.126 215.268 201.347 216.288L202.773 222.875C204.062 222.219 205.667 221.02 207.594 219.283C208.453 218.09 208.745 216.831 208.453 215.507C208.363 215.089 208.226 214.677 208.047 214.272C207.868 213.872 207.576 213.46 207.176 213.043C205.929 212.434 204.772 211.885 203.698 211.39Z" fill="#94CAD4"/>
<path d="M258.94 16.7212C249.262 9.17981 237.545 3.95929 224.711 1.93671C220.821 1.32218 216.824 1 212.755 1C198.268 1 184.767 5.03323 173.389 11.9959" stroke="#1A3F56" stroke-width="1.8037" stroke-miterlimit="10" stroke-linecap="round" stroke-linejoin="round"/>
<path d="M265.908 22.9142C269.339 26.3746 272.406 30.1692 275.043 34.2382C277.191 37.5376 279.058 41.0219 280.615 44.6614C284.183 52.9546 286.146 62.0353 286.146 71.5635" stroke="#1A3F56" stroke-width="1.8037" stroke-miterlimit="10" stroke-linecap="round" stroke-linejoin="round"/>
<path d="M221.978 262.05L235.665 258.995" stroke="#1A3F56" stroke-width="1.8037" stroke-miterlimit="10" stroke-linecap="round" stroke-linejoin="round"/>
<path d="M263.426 201.958C270.712 201.958 276.618 196.052 276.618 188.766C276.618 181.481 270.712 175.575 263.426 175.575C256.141 175.575 250.235 181.481 250.235 188.766C250.235 196.052 256.141 201.958 263.426 201.958Z" fill="#94CAD4"/>
<path d="M154.935 226.771C152.537 222.714 150.735 218.204 149.685 213.341C144.428 189.004 159.893 165.008 184.236 159.752C193.364 157.777 202.439 158.725 210.499 161.953" stroke="#1A3F56" stroke-width="1.7281" stroke-miterlimit="10" stroke-linecap="round" stroke-linejoin="round"/>
<path d="M238.451 209.875C235.975 228.15 222.348 243.769 203.28 247.892C191.151 250.511 179.105 247.988 169.421 241.777" stroke="#1A3F56" stroke-width="1.7281" stroke-miterlimit="10" stroke-linecap="round" stroke-linejoin="round"/>
<path d="M224.437 170.771C230.988 176.838 235.802 184.911 237.831 194.296" stroke="#1A3F56" stroke-width="1.7281" stroke-miterlimit="10" stroke-linecap="round" stroke-linejoin="round"/>
<path d="M123.713 232.141C130.999 232.141 136.905 226.235 136.905 218.95C136.905 211.664 130.999 205.758 123.713 205.758C116.428 205.758 110.522 211.664 110.522 218.95C110.522 226.235 116.428 232.141 123.713 232.141Z" fill="#94CAD4"/>
<path d="M188.734 137.527C196.929 137.527 203.572 130.884 203.572 122.689C203.572 114.494 196.929 107.851 188.734 107.851C180.539 107.851 173.896 114.494 173.896 122.689C173.896 130.884 180.539 137.527 188.734 137.527Z" fill="#EA7F68"/>
<path d="M180.143 150.837C173.246 147.973 169.964 140.032 172.834 133.135C175.698 126.238 183.639 122.957 190.536 125.827C192.433 126.614 193.334 128.792 192.547 130.689C191.759 132.586 189.581 133.487 187.684 132.7C184.576 131.411 180.996 132.885 179.707 135.993C178.418 139.102 179.892 142.681 183.001 143.97C184.898 144.758 185.799 146.935 185.011 148.833C184.218 150.724 182.04 151.625 180.143 150.837Z" fill="#EA7F68"/>
<path d="M187.684 132.695C184.576 131.406 180.996 132.879 179.707 135.988C178.418 139.096 179.892 142.676 183.001 143.965C184.898 144.752 185.799 146.93 185.011 148.827C184.224 150.725 182.046 151.626 180.149 150.838C173.252 147.974 169.97 140.033 172.84 133.136C175.179 127.516 180.888 124.294 186.652 124.849" stroke="#1A3F56" stroke-width="1.8037" stroke-miterlimit="10" stroke-linecap="round" stroke-linejoin="round"/>
<path d="M109.078 42.1314C105.892 41.8928 102.604 41.7078 99.2156 41.5885C95.1107 41.4453 92.4975 45.932 94.6215 49.4461L114.483 82.3444C115.414 83.8896 117.085 84.8383 118.887 84.8442L171.372 85.1724" stroke="#1A3F56" stroke-width="1.8037" stroke-miterlimit="10" stroke-linecap="round" stroke-linejoin="round"/>
<path d="M263.534 27.6932C260.527 33.1881 257.436 37.0364 256.535 38.1163C256.368 38.3192 256.279 38.4265 256.279 38.4265C250.897 35.1093 245.802 32.5318 241.035 30.5331C221.615 22.3951 207.659 23.9582 202.129 25.1515C200.404 25.5214 199.503 25.8615 199.503 25.8615L206.12 75.358H265.187H277.155" stroke="#1A3F56" stroke-width="1.8037" stroke-miterlimit="10" stroke-linecap="round" stroke-linejoin="round"/>
</svg>
