<svg width="318" height="291" viewBox="0 0 318 291" fill="none" xmlns="http://www.w3.org/2000/svg">
<path d="M77.1006 36.6101C77.1006 56.283 70.2641 72.2264 61.8364 72.2264C57.6037 72.2264 53.7798 68.2138 51.0188 61.7296C48.2767 55.2893 46.5786 46.4151 46.5786 36.6101C46.5786 26.8113 48.2767 17.9371 51.0188 11.4969C53.7798 5.00629 57.61 1 61.8364 1C70.2641 1 77.1006 16.9434 77.1006 36.6101Z" fill="#1A3F56"/>
<path d="M61.8427 72.2264H40.2075C31.7736 72.2264 24.9434 56.283 24.9434 36.6101C24.9434 16.9434 31.7736 1 40.2075 1H61.8427C57.61 1 53.7861 5.01258 51.0251 11.4969C48.283 17.9371 46.5849 26.8113 46.5849 36.6101C46.5849 46.4088 48.283 55.2893 51.0251 61.7296C53.7861 68.2138 57.61 72.2264 61.8427 72.2264Z" fill="#D4ECF1"/>
<path d="M31.4151 7.49057C33.8994 3.40252 36.9308 1 40.2013 1H55.0943" stroke="#1A3F56" stroke-width="1.8037" stroke-miterlimit="10" stroke-linecap="round" stroke-linejoin="round"/>
<path d="M25.9497 23.8484C26.4465 20.8358 27.1132 18.0245 27.9182 15.4711" stroke="#1A3F56" stroke-width="1.8037" stroke-miterlimit="10" stroke-linecap="round" stroke-linejoin="round"/>
<path d="M109.522 289.855L23.39 289.006L33.3711 244.333L36.8176 228.906L43.3082 199.874L47.3396 181.824L53.7044 153.34C54.9623 147.704 58.1447 142.881 62.478 139.459C66.8113 136.044 72.3145 134.038 78.2076 134.038C81.5157 134.038 84.673 134.667 87.5723 135.805C86.3082 136.491 85.1006 137.283 83.9749 138.17C79.6415 141.585 76.4591 146.409 75.2013 152.05L68.8365 180.535L64.805 198.585L58.3145 227.616L54.8679 243.044L44.8868 287.717L109.453 288.352L109.522 289.855Z" fill="#D4ECF1"/>
<path d="M109.453 288.352L44.8867 287.716L54.8679 243.044L58.3144 227.616L64.805 198.584L68.8364 180.534L75.2012 152.05C76.4591 146.415 79.6415 141.591 83.9748 138.169C85.1006 137.283 86.3081 136.49 87.5723 135.805C96.4213 139.283 102.805 147.572 103.27 157.44L105.641 207.685L106.264 220.773L109.453 288.352Z" fill="#94CAD4"/>
<path d="M105.145 289.855H1C1 289.855 5.90566 266.138 42.2516 266.138C78.5975 266.138 105.145 289.855 105.145 289.855Z" fill="#F7CA58"/>
<path d="M106.264 220.774H71.1132V207.686H105.642L106.264 220.774Z" fill="#1A3F56"/>
<path d="M74.3082 212.918C74.3082 221.591 70.7925 229.446 65.1069 235.132C59.4214 240.811 51.5724 244.333 42.8931 244.333H33.3711L36.8176 228.906L43.3082 199.874L47.3396 181.824C62.5849 183.975 74.3082 197.082 74.3082 212.918Z" fill="#EA7F68"/>
<path d="M58.2516 214.384C58.2516 218.39 56.6289 222.019 54 224.648C51.3711 227.277 47.7484 228.9 43.7422 228.9H36.8176L43.3082 199.868H43.7422C51.7547 199.868 58.2516 206.365 58.2516 214.384Z" fill="#F7CA58"/>
<path d="M104.176 176.667L105.641 207.686L106.264 220.774L109.522 289.856" stroke="#1A3F56" stroke-width="1.8037" stroke-miterlimit="10" stroke-linecap="round" stroke-linejoin="round"/>
<path d="M29.0692 263.598L33.3774 244.333L36.8239 228.906L43.3145 199.874L47.3459 181.824L53.7107 153.34C54.9686 147.704 58.151 142.881 62.4843 139.459C66.8176 136.044 72.3208 134.038 78.2139 134.038C88.2705 134.038 96.9937 139.837 100.981 148.264" stroke="#1A3F56" stroke-width="1.8037" stroke-miterlimit="10" stroke-linecap="round" stroke-linejoin="round"/>
<path d="M62.5283 289.856H1" stroke="#1A3F56" stroke-width="1.8037" stroke-miterlimit="10" stroke-linecap="round" stroke-linejoin="round"/>
<path d="M1 289.855C1 289.855 5.90566 266.138 42.2516 266.138C60.4277 266.138 76.1509 272.069 87.327 278" stroke="#1A3F56" stroke-width="1.8037" stroke-miterlimit="10" stroke-linecap="round" stroke-linejoin="round"/>
<path d="M74.3082 212.918C74.3082 221.591 70.7925 229.446 65.1069 235.132C59.4214 240.811 51.5724 244.333 42.8931 244.333H33.3711L36.8176 228.906L43.3082 199.874L47.3396 181.824C62.5849 183.975 74.3082 197.082 74.3082 212.918Z" stroke="#1A3F56" stroke-width="1.8037" stroke-miterlimit="10" stroke-linecap="round" stroke-linejoin="round"/>
<path d="M58.2516 214.384C58.2516 218.39 56.6289 222.019 54 224.648C51.3711 227.277 47.7484 228.9 43.7422 228.9H36.8176L43.3082 199.868H43.7422C51.7547 199.868 58.2516 206.365 58.2516 214.384Z" stroke="#1A3F56" stroke-width="1.8037" stroke-miterlimit="10" stroke-linecap="round" stroke-linejoin="round"/>
<path d="M83.0189 177.264C93.2136 177.264 101.478 168.642 101.478 158.006C101.478 147.37 93.2136 138.748 83.0189 138.748C72.8242 138.748 64.5598 147.37 64.5598 158.006C64.5598 168.642 72.8242 177.264 83.0189 177.264Z" fill="#D4ECF1"/>
<path d="M83.0189 177.264C93.2136 177.264 101.478 168.642 101.478 158.006C101.478 147.37 93.2136 138.748 83.0189 138.748C72.8242 138.748 64.5598 147.37 64.5598 158.006C64.5598 168.642 72.8242 177.264 83.0189 177.264Z" stroke="#1A3F56" stroke-width="1.8037" stroke-miterlimit="10" stroke-linecap="round" stroke-linejoin="round"/>
<path d="M82.956 154.088C80.6541 154.088 78.7862 155.956 78.7862 158.258V158.447C78.7862 160.749 80.6541 162.617 82.956 162.617H159.333L157.956 154.088H82.956Z" fill="white" stroke="#1A3F56" stroke-width="1.8037" stroke-miterlimit="10" stroke-linecap="round" stroke-linejoin="round"/>
<path d="M94.3019 53.2073C92.2641 52.4715 91.2075 50.2262 91.9434 48.1885C92.6792 46.1507 94.9245 45.0941 96.9622 45.83C100.302 47.0375 103.994 45.3017 105.201 41.962C106.409 38.6224 104.673 34.9306 101.333 33.723C99.2956 32.9872 98.239 30.7419 98.9748 28.7042C99.7107 26.6664 101.956 25.6098 103.994 26.3457C111.396 29.0186 115.245 37.2199 112.572 44.6224C109.906 52.0312 101.704 55.8803 94.3019 53.2073Z" fill="white" stroke="#1A3F56" stroke-width="1.8037" stroke-miterlimit="10" stroke-linecap="round" stroke-linejoin="round"/>
<path d="M242.157 53.0689C240.119 52.333 239.063 50.0878 239.799 48.05C240.535 46.0123 242.78 44.9557 244.818 45.6915C248.157 46.8991 251.849 45.1632 253.057 41.8236C254.264 38.484 252.528 34.7922 249.189 33.5846C247.151 32.8488 246.094 30.6035 246.83 28.5658C247.566 26.528 249.811 25.4714 251.849 26.2073C259.252 28.8802 263.101 37.0815 260.428 44.484C257.755 51.8865 249.56 55.7419 242.157 53.0689Z" fill="white" stroke="#1A3F56" stroke-width="1.8037" stroke-miterlimit="10" stroke-linecap="round" stroke-linejoin="round"/>
<path d="M271.101 40.8812H66.1069C63.7484 40.8812 61.8428 38.9693 61.8428 36.6171C61.8428 34.2586 63.7547 32.3529 66.1069 32.3529H271.101C273.459 32.3529 275.365 34.2649 275.365 36.6171C275.365 38.9693 273.459 40.8812 271.101 40.8812Z" fill="#94CAD4"/>
<path d="M96.4151 147.328C107.155 147.328 115.862 137.334 115.862 125.007C115.862 112.679 107.155 102.686 96.4151 102.686C85.675 102.686 76.9685 112.679 76.9685 125.007C76.9685 137.334 85.675 147.328 96.4151 147.328Z" fill="white" stroke="#1A3F56" stroke-width="1.8037" stroke-miterlimit="10" stroke-linecap="round" stroke-linejoin="round"/>
<path d="M95.9057 126.409C93.7421 126.409 91.9811 124.654 91.9811 122.484V53.0564C91.9811 50.8928 93.7359 49.1318 95.9057 49.1318C98.0755 49.1318 99.8302 50.8866 99.8302 53.0564V122.484C99.8302 124.654 98.0755 126.409 95.9057 126.409Z" fill="#1A3F56"/>
<path d="M103.252 125.007C103.252 133.007 105.359 140.516 109.025 147.013H90.3522C86.6856 140.516 84.5786 133.007 84.5786 125.007C84.5786 114.12 88.4591 104.139 94.9183 96.3713H113.591C107.132 104.139 103.252 114.12 103.252 125.007Z" fill="white"/>
<path d="M204.635 125.007C204.635 133.013 206.478 140.522 209.692 147.013H109.025C105.359 140.516 103.252 133.007 103.252 125.007C103.252 114.12 107.132 104.139 113.591 96.3713H213.692C208.038 104.126 204.635 114.107 204.635 125.007Z" fill="#EA7F68"/>
<path d="M121.987 113.132C119.384 113.132 117.623 109.529 118.616 106.246L121.811 95.7046C122.56 93.2392 124.327 91.6292 126.283 91.6292C128.887 91.6292 130.648 95.2329 129.654 98.5159L126.459 109.057C125.704 111.522 123.943 113.132 121.987 113.132Z" fill="#1A3F56"/>
<path d="M176.031 114.616C173.428 114.616 171.667 111.012 172.66 107.729L175.855 97.1885C176.604 94.7231 178.371 93.113 180.327 93.113C182.931 93.113 184.692 96.7168 183.698 99.9998L180.503 110.541C179.755 113.006 177.987 114.616 176.031 114.616Z" fill="#1A3F56"/>
<path d="M282.472 125.007C282.472 149.403 265.421 169.233 244.252 169.661C244.019 169.673 243.786 169.673 243.553 169.673C222.063 169.673 204.635 149.679 204.635 125.007C204.635 100.34 222.057 80.3398 243.553 80.3398C243.786 80.3398 244.025 80.3398 244.252 80.3524C265.421 80.7738 282.472 100.61 282.472 125.007Z" fill="#F7CA58"/>
<path d="M244.088 145.78C254.828 145.78 263.535 135.787 263.535 123.459C263.535 111.132 254.828 101.139 244.088 101.139C233.348 101.139 224.641 111.132 224.641 123.459C224.641 135.787 233.348 145.78 244.088 145.78Z" fill="white" stroke="#1A3F56" stroke-width="1.8037" stroke-miterlimit="10" stroke-linecap="round" stroke-linejoin="round"/>
<path d="M164.899 169.856H129.421C112.654 169.856 98.044 160.648 90.3459 147.013H125.824C133.528 160.648 148.132 169.856 164.899 169.856Z" fill="#FFDF99"/>
<path d="M244.252 169.661V169.856H164.899C148.132 169.856 133.522 160.648 125.824 147.013H209.692C216.384 160.535 229.031 169.667 243.547 169.667C243.786 169.673 244.019 169.673 244.252 169.661Z" fill="#F7CA58"/>
<path d="M164.899 80.157C152.509 80.157 141.302 85.1758 133.189 93.2953C132.208 94.2765 131.27 95.3079 130.39 96.3708H94.912C95.7988 95.3079 96.7359 94.2765 97.7107 93.2953C105.824 85.1758 117.031 80.157 129.421 80.157H164.899Z" fill="#FFDF99"/>
<path d="M244.252 80.157V80.3457C244.019 80.3331 243.786 80.3331 243.553 80.3331C231.56 80.3331 220.83 86.5658 213.692 96.3708H130.39C131.277 95.3079 132.214 94.2765 133.189 93.2953C141.302 85.1758 152.509 80.157 164.899 80.157H244.252Z" fill="#F7CA58"/>
<path d="M129.384 135.742C132.484 137.572 136.862 138.862 143.038 138.862C152.421 138.862 158.956 136.088 163.384 132.874C144.151 131.987 133.566 134.421 129.384 135.742Z" fill="white" stroke="#1A3F56" stroke-width="1.8037" stroke-miterlimit="10" stroke-linecap="round" stroke-linejoin="round"/>
<path d="M171.585 123.239H121.855C121.855 123.239 121.673 131.182 129.384 135.742C133.566 134.421 144.151 131.987 163.39 132.874C169.472 128.471 171.585 123.239 171.585 123.239Z" fill="#1A3F56" stroke="#1A3F56" stroke-width="0.8908" stroke-miterlimit="10"/>
<path d="M244.088 126.409C241.925 126.409 240.164 124.654 240.164 122.484V53.0564C240.164 50.8928 241.918 49.1318 244.088 49.1318C246.252 49.1318 248.013 50.8866 248.013 53.0564V122.484C248.006 124.654 246.252 126.409 244.088 126.409Z" fill="#1A3F56"/>
<path d="M129.428 169.855H244.252V169.66C244.019 169.673 243.786 169.673 243.553 169.673C229.038 169.673 216.384 160.54 209.698 147.018H90.3522C98.0441 160.647 112.654 169.855 129.428 169.855Z" stroke="#1A3F56" stroke-width="1.8037" stroke-miterlimit="10" stroke-linecap="round" stroke-linejoin="round"/>
<path d="M243.547 80.3397C243.78 80.3397 244.019 80.3397 244.245 80.3523V80.1636H129.428C117.038 80.1636 105.83 85.1824 97.717 93.3019C96.7359 94.2831 95.8051 95.3082 94.912 96.3774H213.686C220.824 86.5724 231.553 80.3397 243.547 80.3397Z" stroke="#1A3F56" stroke-width="1.8037" stroke-miterlimit="10" stroke-linecap="round" stroke-linejoin="round"/>
<path d="M207.327 141.371C205.591 136.302 204.635 130.786 204.635 125.013C204.635 116.252 206.836 108.076 210.629 101.182" stroke="#1A3F56" stroke-width="1.8037" stroke-miterlimit="10" stroke-linecap="round" stroke-linejoin="round"/>
<path d="M282.472 125.006C282.472 142.767 273.44 158.1 260.358 165.302" stroke="#1A3F56" stroke-width="1.8037" stroke-miterlimit="10" stroke-linecap="round" stroke-linejoin="round"/>
<path d="M217.208 32.3463H271.101" stroke="#1A3F56" stroke-width="1.8037" stroke-miterlimit="10" stroke-linecap="round" stroke-linejoin="round"/>
<path d="M317 36.6103C317 56.2833 310.17 72.2267 301.742 72.2267C297.509 72.2267 293.679 68.2078 290.925 61.7235C288.182 55.2833 286.484 46.409 286.484 36.6103C286.484 26.8178 288.182 17.9436 290.925 11.5034C293.679 5.01282 297.516 1.00024 301.742 1.00024C310.17 1.00024 317 16.9436 317 36.6103Z" fill="#94CAD4"/>
<path d="M301.742 72.227H280.101C271.673 72.227 264.837 56.2836 264.837 36.6107C264.837 16.944 271.673 1.00061 280.101 1.00061H301.742C297.509 1.00061 293.679 5.01948 290.925 11.5038C288.182 17.944 286.484 26.8182 286.484 36.6107C286.484 46.4031 288.182 55.2836 290.925 61.7239C293.679 68.2082 297.516 72.227 301.742 72.227Z" fill="#D4ECF1"/>
<path d="M303.359 36.6095C303.359 42.2762 301.39 46.8674 298.962 46.8674C297.742 46.8674 296.642 45.7102 295.843 43.8422C295.05 41.9869 294.56 39.4272 294.56 36.6095C294.56 33.7856 295.05 31.2322 295.843 29.3768C296.635 27.5089 297.742 26.3517 298.962 26.3517C301.39 26.3517 303.359 30.9492 303.359 36.6095Z" fill="#1A3F56"/>
<path d="M97.1698 53.0378C89.8805 56.0064 81.5283 52.4844 78.5661 45.1951C75.5975 37.9058 79.1195 29.5535 86.4088 26.5913C88.4151 25.7737 90.7044 26.7422 91.522 28.7485C92.3396 30.7548 91.3711 33.0441 89.3648 33.8617C86.0818 35.2013 84.4906 38.9624 85.8302 42.2454C87.1698 45.5284 90.9308 47.1196 94.2139 45.78C96.2201 44.9624 98.5094 45.9309 99.3271 47.9372C100.145 49.9435 99.1761 52.2202 97.1698 53.0378Z" fill="white" stroke="#1A3F56" stroke-width="1.8037" stroke-miterlimit="10" stroke-linecap="round" stroke-linejoin="round"/>
<path d="M95.9057 68.5604C102.582 68.5604 107.994 63.1484 107.994 56.4723C107.994 49.7963 102.582 44.3843 95.9057 44.3843C89.2296 44.3843 83.8176 49.7963 83.8176 56.4723C83.8176 63.1484 89.2296 68.5604 95.9057 68.5604Z" fill="#1A3F56"/>
<path d="M54.2893 72.2265H40.2075C31.7736 72.2265 24.9434 56.2831 24.9434 36.6102C24.9434 35.3208 24.9748 34.0441 25.0314 32.7863" stroke="#1A3F56" stroke-width="1.8037" stroke-miterlimit="10" stroke-linecap="round" stroke-linejoin="round"/>
<path d="M277.321 154.088H247.874C245.516 154.088 243.61 156 243.61 158.352C243.61 160.711 245.522 162.617 247.874 162.617H277.321C279.623 162.617 281.491 160.749 281.491 158.447V158.258C281.497 155.956 279.629 154.088 277.321 154.088Z" fill="white" stroke="#1A3F56" stroke-width="1.8037" stroke-miterlimit="10" stroke-linecap="round" stroke-linejoin="round"/>
<path d="M309.472 289.855L223.34 289.006L233.321 244.333L236.767 228.906L243.258 199.874L247.289 181.824L253.654 153.34C254.912 147.704 258.094 142.881 262.428 139.459C266.761 136.044 272.264 134.038 278.157 134.038C281.912 134.038 285.484 134.849 288.698 136.302C286.83 137.145 285.082 138.208 283.491 139.459C279.151 142.874 275.975 147.698 274.717 153.34L268.352 181.824L264.321 199.874L257.83 228.906L254.384 244.333L244.403 289.006L309.459 289.648L309.472 289.855Z" fill="#D4ECF1"/>
<path d="M309.459 289.648L244.402 289.006L254.384 244.333L257.83 228.906L264.321 199.874L268.352 181.824L274.717 153.34C275.975 147.705 279.157 142.881 283.491 139.459C285.082 138.201 286.83 137.138 288.698 136.302C296.937 140.038 302.78 148.019 303.22 157.447L305.591 207.692L306.214 220.78L309.459 289.648Z" fill="#94CAD4"/>
<path d="M305.088 289.855H200.943C200.943 289.855 205.849 266.138 242.195 266.138C278.541 266.138 305.088 289.855 305.088 289.855Z" fill="#F7CA58"/>
<path d="M306.208 220.774H271.057V207.686H305.585L306.208 220.774Z" fill="#1A3F56"/>
<path d="M274.258 212.918C274.258 221.591 270.742 229.446 265.057 235.132C259.371 240.811 251.522 244.333 242.843 244.333H233.321L236.767 228.906L243.258 199.874L247.289 181.824C262.528 183.975 274.258 197.082 274.258 212.918Z" fill="#EA7F68"/>
<path d="M258.201 214.384C258.201 218.39 256.579 222.019 253.95 224.648C251.321 227.277 247.698 228.9 243.692 228.9H236.767L243.258 199.868H243.692C251.698 199.868 258.201 206.365 258.201 214.384Z" fill="#F7CA58"/>
<path d="M87.8994 141.955C85.761 136.729 84.5723 131.006 84.5723 125.006C84.5723 115.672 87.4277 106.999 92.3082 99.8234" stroke="#1A3F56" stroke-width="1.8037" stroke-miterlimit="10" stroke-linecap="round" stroke-linejoin="round"/>
<path d="M317 36.6103C317 56.2833 310.17 72.2267 301.742 72.2267C297.509 72.2267 293.679 68.2078 290.925 61.7235C288.182 55.2833 286.484 46.409 286.484 36.6103C286.484 26.8178 288.182 17.9436 290.925 11.5034C293.679 5.01282 297.516 1.00024 301.742 1.00024C310.17 1.00024 317 16.9436 317 36.6103Z" stroke="#1A3F56" stroke-width="1.8037" stroke-miterlimit="10" stroke-linecap="round" stroke-linejoin="round"/>
<path d="M301.742 72.227H280.101C271.673 72.227 264.837 56.2836 264.837 36.6107C264.837 16.944 271.673 1.00061 280.101 1.00061H301.742C297.509 1.00061 293.679 5.01948 290.925 11.5038C288.182 17.944 286.484 26.8182 286.484 36.6107C286.484 46.4031 288.182 55.2836 290.925 61.7239C293.679 68.2082 297.516 72.227 301.742 72.227Z" stroke="#1A3F56" stroke-width="1.8037" stroke-miterlimit="10" stroke-linecap="round" stroke-linejoin="round"/>
<path d="M304.126 176.667L305.585 207.686L306.208 220.774L309.472 289.856" stroke="#1A3F56" stroke-width="1.8037" stroke-miterlimit="10" stroke-linecap="round" stroke-linejoin="round"/>
<path d="M229.013 263.598L233.321 244.333L236.767 228.906L243.258 199.874L247.289 181.824L253.654 153.34C254.912 147.704 258.094 142.881 262.428 139.459C266.761 136.044 272.264 134.038 278.157 134.038C288.214 134.038 296.937 139.837 300.924 148.264" stroke="#1A3F56" stroke-width="1.8037" stroke-miterlimit="10" stroke-linecap="round" stroke-linejoin="round"/>
<path d="M262.478 289.856H200.943" stroke="#1A3F56" stroke-width="1.8037" stroke-miterlimit="10" stroke-linecap="round" stroke-linejoin="round"/>
<path d="M200.943 289.855C200.943 289.855 205.849 266.138 242.195 266.138C260.371 266.138 276.094 272.069 287.27 278" stroke="#1A3F56" stroke-width="1.8037" stroke-miterlimit="10" stroke-linecap="round" stroke-linejoin="round"/>
<path d="M274.258 212.918C274.258 221.591 270.742 229.446 265.057 235.132C259.371 240.811 251.522 244.333 242.843 244.333H233.321L236.767 228.906L243.258 199.874L247.289 181.824C262.528 183.975 274.258 197.082 274.258 212.918Z" stroke="#1A3F56" stroke-width="1.8037" stroke-miterlimit="10" stroke-linecap="round" stroke-linejoin="round"/>
<path d="M258.201 214.384C258.201 218.39 256.579 222.019 253.95 224.648C251.321 227.277 247.698 228.9 243.692 228.9H236.767L243.258 199.868H243.692C251.698 199.868 258.201 206.365 258.201 214.384Z" stroke="#1A3F56" stroke-width="1.8037" stroke-miterlimit="10" stroke-linecap="round" stroke-linejoin="round"/>
<path d="M90.4025 40.5033H247.774" stroke="#1A3F56" stroke-width="1.8037" stroke-miterlimit="10" stroke-linecap="round" stroke-linejoin="round"/>
<path d="M245.019 52.8939C237.73 55.8625 229.377 52.3404 226.415 45.0511C223.446 37.7618 226.969 29.4096 234.258 26.4474C236.264 25.6298 238.553 26.5983 239.371 28.6046C240.189 30.6109 239.22 32.9002 237.214 33.7178C233.931 35.0574 232.34 38.8184 233.679 42.1015C235.019 45.3845 238.78 46.9757 242.063 45.636C244.069 44.8184 246.358 45.787 247.176 47.7933C247.987 49.7933 247.025 52.0826 245.019 52.8939Z" fill="white" stroke="#1A3F56" stroke-width="1.8037" stroke-miterlimit="10" stroke-linecap="round" stroke-linejoin="round"/>
<path d="M244.088 68.5604C250.764 68.5604 256.176 63.1484 256.176 56.4723C256.176 49.7963 250.764 44.3843 244.088 44.3843C237.412 44.3843 232 49.7963 232 56.4723C232 63.1484 237.412 68.5604 244.088 68.5604Z" fill="#1A3F56"/>
</svg>
