<svg width="299" height="336" viewBox="0 0 299 336" fill="none" xmlns="http://www.w3.org/2000/svg">
<path d="M118.973 248.371C121.597 256.454 126.336 269.548 130.381 280.521C128.879 281.898 116.3 294.056 119.315 314.054C119.563 315.685 121.61 316.33 122.931 315.35L152.5 293.361C141.986 274.597 135.932 255.809 132.471 241.064C128.7 244.507 124.091 247.063 118.973 248.371Z" fill="#F7C0B8"/>
<path d="M165.266 226.042C165.235 224.516 165.278 223.052 165.377 221.632L142.489 222.159C141.422 229.584 137.774 236.209 132.465 241.059C135.926 255.804 141.98 274.592 152.494 293.356L181.232 271.981C181.232 271.987 165.594 241.847 165.266 226.042Z" fill="#EA7F68"/>
<path d="M241.58 264.623C239.521 270.15 235.966 274.963 231.389 278.555C238.237 287.797 244.836 294.831 250.493 300.073C247.932 310.283 246.548 325.021 255.884 334.313C256.994 335.417 258.849 335.156 259.575 333.773L277.879 298.925C261.59 288.883 249.861 276.328 241.58 264.623Z" fill="#F7C0B8"/>
<path d="M252.757 218.188L235.104 231.953C240.128 237.362 243.298 244.532 243.565 252.49C243.707 256.758 242.982 260.852 241.58 264.623C249.867 276.328 261.597 288.883 277.873 298.919L297.573 261.41C297.573 261.41 271.254 246.883 252.757 218.188Z" fill="#EA7F68"/>
<path d="M231.382 278.557C229.31 275.753 227.208 272.757 225.117 269.544C221.842 264.544 218.561 259.03 215.348 252.957C211.762 246.184 208.847 239.82 206.521 233.871C205.045 230.106 203.81 226.514 202.787 223.09C205.33 222.34 208.003 221.893 210.77 221.8C228.306 221.217 242.982 234.963 243.558 252.492C243.912 263.025 239.086 272.521 231.382 278.557Z" fill="white"/>
<path d="M118.973 248.371C118.539 247.031 118.161 245.822 117.851 244.792C116.97 241.821 116.021 238.812 115.202 235.761C112.343 225.079 111.077 213.771 119.929 201.179C120.357 200.565 120.81 199.945 121.269 199.331C123.371 196.465 125.697 193.593 128.086 190.814C136.633 196.254 142.439 205.683 142.799 216.575C143.295 231.735 133.079 244.755 118.973 248.371Z" fill="white"/>
<path d="M129.835 216.043C129.835 225.341 123.669 233.2 115.202 235.756C112.343 225.074 111.077 213.766 119.929 201.175C120.357 200.561 120.81 199.94 121.269 199.326C126.454 203.06 129.835 209.158 129.835 216.043Z" fill="#EA7F68"/>
<path d="M232.505 253.744C232.505 260.089 229.633 265.765 225.117 269.542C221.842 264.543 218.561 259.029 215.348 252.956C211.763 246.182 208.847 239.818 206.521 233.87C208.239 233.404 210.044 233.156 211.911 233.156C223.288 233.156 232.505 242.374 232.505 253.744Z" fill="#EA7F68"/>
<path d="M166.915 212.595L152.618 203.669C146.57 199.891 144.715 191.939 148.462 185.873L162.797 162.692C155.434 163.226 150.658 167.952 150.658 167.952C150.658 167.952 138.723 178.466 128.085 190.816C136.633 196.256 142.439 205.685 142.799 216.577C142.861 218.481 142.755 220.348 142.495 222.166L165.383 221.638C165.607 218.394 166.14 215.398 166.915 212.595Z" fill="#94CAD4"/>
<path d="M152.618 203.667L166.915 212.593C169.31 203.897 173.9 197.024 177.944 190.089C183.856 179.935 184.147 171.437 175.196 165.966C170.612 163.168 166.401 162.43 162.803 162.685L148.468 185.865C144.715 191.931 146.57 199.889 152.618 203.667Z" fill="white" stroke="#1A3F56" stroke-width="1.8037" stroke-miterlimit="10" stroke-linecap="round" stroke-linejoin="round"/>
<path d="M120.555 253.124C122.968 260.189 126.243 269.27 129.283 277.551" stroke="#1A3F56" stroke-width="1.8037" stroke-miterlimit="10" stroke-linecap="round" stroke-linejoin="round"/>
<path d="M145.578 172.623C141.788 176.215 136.348 181.561 130.939 187.572" stroke="#1A3F56" stroke-width="1.8037" stroke-miterlimit="10" stroke-linecap="round" stroke-linejoin="round"/>
<path d="M162.214 198.754C167.626 198.754 172.014 194.367 172.014 188.954C172.014 183.541 167.626 179.153 162.214 179.153C156.801 179.153 152.413 183.541 152.413 188.954C152.413 194.367 156.801 198.754 162.214 198.754Z" stroke="#1A3F56" stroke-width="1.8037" stroke-miterlimit="10" stroke-linecap="round" stroke-linejoin="round"/>
<path d="M130.529 280.391C130.529 280.391 116.114 292.803 119.315 314.06C119.563 315.692 121.61 316.337 122.931 315.357L181.232 271.992" stroke="#1A3F56" stroke-width="1.8037" stroke-miterlimit="10" stroke-linecap="round" stroke-linejoin="round"/>
<path d="M160.179 191.84C157.388 190.146 156.495 186.512 158.188 183.72L174.173 157.346C175.866 154.554 179.501 153.661 182.293 155.354C185.084 157.048 185.977 160.683 184.284 163.474L168.299 189.849C166.612 192.646 162.977 193.533 160.179 191.84Z" fill="#71AB86"/>
<path d="M181.232 271.985C181.232 271.985 165.594 241.845 165.266 226.04" stroke="#1A3F56" stroke-width="1.8037" stroke-miterlimit="10" stroke-linecap="round" stroke-linejoin="round"/>
<path d="M160.179 191.84C157.388 190.146 156.495 186.512 158.188 183.72L174.173 157.346C175.866 154.554 179.501 153.661 182.293 155.354C185.084 157.048 185.977 160.683 184.284 163.474L168.299 189.849C166.612 192.646 162.977 193.533 160.179 191.84Z" fill="#1A3F56"/>
<path d="M258.005 67.8049C255.052 65.882 251.101 66.7194 249.178 69.6782C247.566 72.1594 247.907 75.3414 249.805 77.4318L230.148 101.338L238.658 106.871L251.877 78.9453C254.705 80.2417 258.129 79.3113 259.872 76.6254C261.801 73.6791 260.964 69.7278 258.005 67.8049Z" fill="#1A3F56"/>
<path d="M157.791 58.1102C154.764 56.2989 150.85 57.2852 149.039 60.3122C147.519 62.8492 147.978 66.0189 149.951 68.041L131.206 92.6727L139.921 97.8831L152.085 69.4863C154.957 70.6772 158.343 69.6165 159.993 66.8687C161.805 63.8354 160.818 59.9214 157.791 58.1102Z" fill="#1A3F56"/>
<path d="M266.925 198.643C265.703 199.772 263.798 199.704 262.67 198.482L255.269 190.499C254.141 189.277 254.209 187.372 255.431 186.243C256.653 185.115 258.557 185.183 259.686 186.405L267.086 194.388C268.215 195.61 268.14 197.514 266.925 198.643Z" fill="white" stroke="#1A3F56" stroke-width="1.8037" stroke-miterlimit="10" stroke-linecap="round" stroke-linejoin="round"/>
<path d="M272.501 188.012C271.912 189.562 270.169 190.344 268.618 189.755L258.445 185.884C256.895 185.295 256.113 183.552 256.702 182.001C257.292 180.45 259.035 179.669 260.585 180.258L270.758 184.129C272.309 184.718 273.09 186.455 272.501 188.012Z" fill="white" stroke="#1A3F56" stroke-width="1.8037" stroke-miterlimit="10" stroke-linecap="round" stroke-linejoin="round"/>
<path d="M251.573 203.531C249.911 203.493 248.596 202.11 248.633 200.448L248.893 189.568C248.93 187.906 250.314 186.591 251.976 186.628C253.638 186.665 254.953 188.048 254.916 189.711L254.656 200.59C254.612 202.259 253.229 203.574 251.573 203.531Z" fill="white" stroke="#1A3F56" stroke-width="1.8037" stroke-miterlimit="10" stroke-linecap="round" stroke-linejoin="round"/>
<path d="M67.4396 94.1547C67.2473 91.9465 68.8787 89.9988 71.0869 89.8065L85.5458 88.5349C87.7541 88.3426 89.7018 89.974 89.8941 92.1822C90.0864 94.3905 88.455 96.3382 86.2468 96.5305L71.7878 97.802C69.5796 98.0005 67.6319 96.363 67.4396 94.1547Z" fill="white" stroke="#1A3F56" stroke-width="1.8037" stroke-miterlimit="10" stroke-linecap="round" stroke-linejoin="round"/>
<path d="M123.055 59.2333L51.5045 120.164C48.9117 122.373 45.0225 122.056 42.8205 119.47L2.47065 72.0857C0.262422 69.4929 0.57877 65.6037 3.16538 63.4017L74.722 2.47065C77.3148 0.262422 81.204 0.57877 83.406 3.16538L123.75 50.5431C125.958 53.1421 125.648 57.0313 123.055 59.2333Z" fill="#D4ECF1"/>
<path d="M116.709 42.2812L123.75 50.5497C125.958 53.1425 125.642 57.0317 123.055 59.2338" stroke="#1A3F56" stroke-width="1.8037" stroke-miterlimit="10" stroke-linecap="round" stroke-linejoin="round"/>
<path d="M2.47065 72.0857C0.262422 69.4929 0.57877 65.6037 3.16538 63.4017L74.722 2.47065C77.3148 0.262422 81.204 0.57877 83.406 3.16538L106.94 30.8055" stroke="#1A3F56" stroke-width="1.8037" stroke-miterlimit="10" stroke-linecap="round" stroke-linejoin="round"/>
<path d="M25.8121 99.4958L12.5255 83.8955" stroke="#1A3F56" stroke-width="1.8037" stroke-miterlimit="10" stroke-linecap="round" stroke-linejoin="round"/>
<path d="M114.24 66.7373L51.5044 120.163C48.9116 122.371 45.0223 122.055 42.8203 119.468L33.4105 108.421" stroke="#1A3F56" stroke-width="1.8037" stroke-miterlimit="10" stroke-linecap="round" stroke-linejoin="round"/>
<path d="M111.598 54.2445L48.4032 108.055C46.2012 109.928 42.8951 109.661 41.0218 107.465L11.4216 72.7043C9.54831 70.5023 9.81504 67.1961 12.0109 65.3229L75.1997 11.5128C77.4018 9.6395 80.7079 9.90622 82.5812 12.102L112.181 46.8631C114.061 49.0651 113.8 52.3712 111.598 54.2445Z" fill="white"/>
<path d="M48.3597 31.599L36.1214 42.0136C35.6314 42.4292 34.8994 42.3734 34.4776 41.8834C34.062 41.3933 34.1179 40.6614 34.6079 40.2396L46.84 29.8249C47.33 29.4093 48.062 29.4652 48.4838 29.9552C48.9056 30.4452 48.8497 31.1772 48.3597 31.599Z" fill="#1A3F56"/>
<path d="M47.5471 76.1243C47.4664 76.1243 47.3796 76.1181 47.2928 76.1057C46.1886 75.9692 45.4009 74.9582 45.5373 73.8541L49.104 45.1719L77.7242 46.4621C78.8345 46.5117 79.6967 47.4545 79.6471 48.5711C79.5974 49.6876 78.6298 50.5374 77.5381 50.494L52.6459 49.3712L49.5382 74.3565C49.4204 75.38 48.5457 76.1243 47.5471 76.1243Z" fill="#EA7F68"/>
<path d="M71.726 73.8844C71.1553 73.8844 70.5847 73.6425 70.1877 73.1711L49.7305 49.1472C49.0048 48.2974 49.1102 47.0259 49.96 46.3001C50.8098 45.5744 52.0814 45.6798 52.8072 46.5296L73.2705 70.5596C73.9963 71.4094 73.8908 72.681 73.041 73.4068C72.6564 73.7293 72.1912 73.8844 71.726 73.8844Z" fill="#EA7F68"/>
<path d="M120.902 128.779C119.805 128.817 118.7 128.389 117.9 127.52L85.118 91.8722C83.6603 90.2843 83.7595 87.8155 85.3475 86.3578C86.9354 84.9001 89.4042 84.9994 90.8618 86.5873L123.644 122.235C125.102 123.823 125.003 126.292 123.415 127.75C122.695 128.413 121.802 128.755 120.902 128.779Z" fill="#1A3F56"/>
<path d="M148.543 100.934C142.278 108.552 138.655 118.389 139.003 129.015C139.201 134.908 140.597 140.484 142.954 145.508C143.109 145.831 143.264 146.154 143.425 146.476C149.157 157.908 159.931 166.325 172.734 168.906L148.195 169.718C131.23 170.277 116.288 160.718 109.142 146.476C108.981 146.154 108.825 145.831 108.67 145.508C106.313 140.484 104.918 134.908 104.725 129.015C104.372 118.389 107.994 108.552 114.259 100.934C114.588 100.531 114.929 100.134 115.27 99.7435C115.531 99.4458 115.804 99.1481 116.07 98.8565C123.433 90.9851 133.798 85.9297 145.416 85.5451L202.576 83.6594C205.919 83.5478 209.182 83.8331 212.321 84.4658L179.706 85.5451C168.088 85.9297 157.717 90.9851 150.36 98.8565C150.081 99.1481 149.82 99.4458 149.56 99.7435C149.206 100.134 148.871 100.531 148.543 100.934Z" fill="#D4ECF1"/>
<path d="M234.713 154.522C227.35 162.393 216.985 167.455 205.361 167.833L172.74 168.913C159.937 166.332 149.163 157.915 143.431 146.483C143.27 146.16 143.115 145.838 142.96 145.515C140.603 140.491 139.207 134.915 139.009 129.022C138.661 118.396 142.278 108.558 148.549 100.941C148.877 100.538 149.212 100.141 149.56 99.7504C149.82 99.4526 150.087 99.1549 150.36 98.8634C157.723 90.9919 168.088 85.9365 179.706 85.552L212.327 84.4727C231.035 88.244 245.401 104.458 246.058 124.357C246.443 135.969 242.082 146.65 234.713 154.522Z" fill="#94CAD4"/>
<path d="M118.353 128.57C118.545 134.469 119.941 140.039 122.304 145.063L108.677 145.516C106.32 140.492 104.924 134.922 104.725 129.023C104.372 118.397 107.994 108.559 114.259 100.942L127.887 100.489C121.622 108.106 118 117.944 118.353 128.57Z" fill="white"/>
<path d="M200.089 98.1016L200.715 117.132C201.174 131.113 190.214 142.824 176.232 143.283L122.298 145.064C119.941 140.039 118.545 134.469 118.347 128.57C117.993 117.945 121.616 108.107 127.881 100.49L200.089 98.1016Z" fill="#F7CA58"/>
<path d="M241.747 132.763C241.747 132.763 243.8 153.487 269.319 155.924C269.319 155.924 254.91 175.277 228.355 158.095C201.8 140.913 241.747 132.763 241.747 132.763Z" fill="#94CAD4"/>
<path d="M250.164 213.984C231.649 182.504 226.687 171.209 213.524 171.643C203.103 171.984 192.757 189.532 202.793 223.09C205.33 222.339 208.01 221.892 210.776 221.799C220.347 221.483 229.068 225.447 235.11 231.954L252.764 218.189C251.876 216.819 251.008 215.417 250.164 213.984Z" fill="#94CAD4"/>
<path d="M216.012 196.974C221.424 196.974 225.812 192.586 225.812 187.174C225.812 181.761 221.424 177.373 216.012 177.373C210.599 177.373 206.211 181.761 206.211 187.174C206.211 192.586 210.599 196.974 216.012 196.974Z" fill="white" stroke="#1A3F56" stroke-width="1.8037" stroke-miterlimit="10" stroke-linecap="round" stroke-linejoin="round"/>
<path d="M216.011 192.138C218.752 192.138 220.974 189.916 220.974 187.175C220.974 184.435 218.752 182.213 216.011 182.213C213.271 182.213 211.049 184.435 211.049 187.175C211.049 189.916 213.271 192.138 216.011 192.138Z" stroke="#1A3F56" stroke-width="1.8037" stroke-miterlimit="10" stroke-linecap="round" stroke-linejoin="round"/>
<path d="M141.608 100.037C141.583 100.254 141.533 100.478 141.471 100.701L137.229 115.972C136.441 118.795 133.513 120.445 130.691 119.663L130.436 119.589C127.614 118.807 125.964 115.873 126.746 113.057L130.256 100.415L141.608 100.037Z" fill="#1A3F56"/>
<path d="M185.524 98.584C185.499 98.8011 185.45 99.0244 185.388 99.2477L181.145 114.519C180.363 117.342 177.436 118.992 174.613 118.21L174.353 118.136C171.537 117.354 169.88 114.42 170.662 111.604L174.179 98.9624L185.524 98.584Z" fill="#1A3F56"/>
<path d="M161.463 126.875C162.474 123.091 162.45 119.661 162.45 119.661L142.185 120.331C142.185 120.331 141.465 127.036 143.76 131.862C146.595 129.691 152.041 126.943 161.463 126.875Z" fill="#1A3F56" stroke="#1A3F56" stroke-width="0.9018" stroke-miterlimit="10" stroke-linecap="round" stroke-linejoin="round"/>
<path d="M143.76 131.855C145.087 134.647 147.414 136.811 151.483 136.675C157.537 136.476 160.247 131.421 161.463 126.868C152.041 126.943 146.595 129.69 143.76 131.855Z" fill="white" stroke="#1A3F56" stroke-width="1.8037" stroke-miterlimit="10" stroke-linecap="round" stroke-linejoin="round"/>
<path d="M216.83 162.277C221.959 162.277 226.116 158.119 226.116 152.991C226.116 147.862 221.959 143.705 216.83 143.705C211.702 143.705 207.545 147.862 207.545 152.991C207.545 158.119 211.702 162.277 216.83 162.277Z" fill="white" stroke="#1A3F56" stroke-width="1.8037" stroke-miterlimit="10" stroke-linecap="round" stroke-linejoin="round"/>
<path d="M252.249 185.263C250.208 185.052 248.657 183.285 248.75 181.207C248.75 181.207 248.812 178.856 247.863 175.525C246.617 171.121 244.284 167.132 240.941 163.683C233.014 155.508 218.325 156.786 218.176 156.804C216.036 157.009 214.126 155.434 213.921 153.294C213.716 151.154 215.28 149.243 217.42 149.038C218.17 148.964 235.972 147.357 246.542 158.256C256.975 169.018 256.566 181.051 256.547 181.56C256.454 183.713 254.631 185.381 252.472 185.288C252.398 185.276 252.323 185.276 252.249 185.263Z" fill="#1A3F56"/>
<path d="M252.826 189.302C256.419 189.302 259.333 186.389 259.333 182.795C259.333 179.201 256.419 176.288 252.826 176.288C249.232 176.288 246.319 179.201 246.319 182.795C246.319 186.389 249.232 189.302 252.826 189.302Z" fill="white" stroke="#1A3F56" stroke-width="1.8037" stroke-miterlimit="10" stroke-linecap="round" stroke-linejoin="round"/>
<path d="M196.144 155.254C198.916 153.529 202.564 154.379 204.288 157.152L220.577 183.334C222.301 186.107 221.451 189.754 218.679 191.479C215.906 193.203 212.259 192.353 210.534 189.581L194.246 163.398C192.521 160.626 193.371 156.984 196.144 155.254Z" fill="white" stroke="#1A3F56" stroke-width="1.8037" stroke-miterlimit="10" stroke-linecap="round" stroke-linejoin="round"/>
<path d="M137.805 144.549L124.072 145.008" stroke="#1A3F56" stroke-width="1.8037" stroke-miterlimit="10" stroke-linecap="round" stroke-linejoin="round"/>
<path d="M114.259 100.936L200.089 98.1016L200.715 117.132C201.174 131.113 190.214 142.824 176.232 143.283L146.235 144.276" stroke="#1A3F56" stroke-width="1.8037" stroke-miterlimit="10" stroke-linecap="round" stroke-linejoin="round"/>
<path d="M227.964 139.897C240.914 139.897 251.411 129.399 251.411 116.45C251.411 103.5 240.914 93.0029 227.964 93.0029C215.015 93.0029 204.517 103.5 204.517 116.45C204.517 129.399 215.015 139.897 227.964 139.897Z" fill="#F7CA58"/>
<path d="M227.964 129.915C235.402 129.915 241.431 123.886 241.431 116.449C241.431 109.012 235.402 102.982 227.964 102.982C220.527 102.982 214.498 109.012 214.498 116.449C214.498 123.886 220.527 129.915 227.964 129.915Z" fill="white" stroke="#1A3F56" stroke-width="1.8037" stroke-miterlimit="10" stroke-linecap="round" stroke-linejoin="round"/>
<path d="M186.43 168.455L148.195 169.714C131.23 170.272 116.281 160.713 109.142 146.472C108.981 146.155 108.826 145.833 108.67 145.504C106.313 140.48 104.918 134.909 104.719 129.01C104.366 118.385 107.988 108.547 114.253 100.93C114.582 100.527 114.917 100.13 115.264 99.739C115.525 99.4413 115.791 99.1435 116.064 98.852C123.427 90.9805 133.792 85.9252 145.41 85.5406L202.576 83.6549C210.714 83.3882 218.387 85.4475 224.962 89.2313" stroke="#1A3F56" stroke-width="1.8037" stroke-miterlimit="10" stroke-linecap="round" stroke-linejoin="round"/>
<path d="M239.651 148.121C238.212 150.41 236.555 152.55 234.713 154.516C230.619 158.889 225.607 162.394 219.957 164.714" stroke="#1A3F56" stroke-width="1.8037" stroke-miterlimit="10" stroke-linecap="round" stroke-linejoin="round"/>
<path d="M208.128 128.954C205.975 125.548 204.673 121.541 204.53 117.224C204.462 115.103 204.673 113.037 205.138 111.064" stroke="#1A3F56" stroke-width="1.8037" stroke-miterlimit="10" stroke-linecap="round" stroke-linejoin="round"/>
<path d="M210.851 100.426C214.951 96.0463 220.726 93.2302 227.195 93.0131C240.134 92.5851 250.971 102.733 251.399 115.672C251.827 128.611 241.679 139.448 228.74 139.876C223.263 140.056 218.158 138.344 214.064 135.323" stroke="#1A3F56" stroke-width="1.8037" stroke-miterlimit="10" stroke-linecap="round" stroke-linejoin="round"/>
<path d="M90.0742 98.0391C93.6678 98.0391 96.5811 95.1259 96.5811 91.5322C96.5811 87.9386 93.6678 85.0254 90.0742 85.0254C86.4806 85.0254 83.5674 87.9386 83.5674 91.5322C83.5674 95.1259 86.4806 98.0391 90.0742 98.0391Z" fill="white" stroke="#1A3F56" stroke-width="1.8037" stroke-miterlimit="10" stroke-linecap="round" stroke-linejoin="round"/>
<path d="M91.6931 89.2055C89.9687 89.2613 88.5296 87.9153 88.4738 86.1909L88.1017 74.9202C88.0458 73.1958 89.3918 71.7567 91.1162 71.7009C92.8407 71.6451 94.2797 72.9911 94.3356 74.7155L94.7077 85.9862C94.7636 87.7106 93.4113 89.1496 91.6931 89.2055Z" fill="white" stroke="#1A3F56" stroke-width="1.8037" stroke-miterlimit="10" stroke-linecap="round" stroke-linejoin="round"/>
<path d="M196.144 155.254C198.916 153.529 202.564 154.379 204.288 157.152L220.577 183.334C222.301 186.107 221.451 189.754 218.679 191.479C215.906 193.203 212.259 192.353 210.534 189.581L194.246 163.398C192.521 160.626 193.371 156.984 196.144 155.254Z" stroke="#1A3F56" stroke-width="1.8037" stroke-miterlimit="10" stroke-linecap="round" stroke-linejoin="round"/>
<path d="M201.224 182.775C198.433 190.008 197.595 200.72 200.647 214.801" stroke="#1A3F56" stroke-width="1.8037" stroke-miterlimit="10" stroke-linecap="round" stroke-linejoin="round"/>
<path d="M234.769 187.981C228.647 178.354 224.15 173.447 218.158 172.052" stroke="#1A3F56" stroke-width="1.8037" stroke-miterlimit="10" stroke-linecap="round" stroke-linejoin="round"/>
<path d="M286.365 253.886C277.029 246.864 263.563 234.936 252.764 218.182C251.883 216.811 251.014 215.409 250.171 213.976C246.486 207.718 243.341 202.259 240.562 197.526" stroke="#1A3F56" stroke-width="1.8037" stroke-miterlimit="10" stroke-linecap="round" stroke-linejoin="round"/>
<path d="M234.502 282.631C238.968 288.307 243.285 293.046 247.237 296.96" stroke="#1A3F56" stroke-width="1.8037" stroke-miterlimit="10" stroke-linecap="round" stroke-linejoin="round"/>
<path d="M251.66 295.905C248.564 305.848 245.178 323.657 255.878 334.313C256.988 335.417 258.843 335.157 259.568 333.774L297.573 261.417" stroke="#1A3F56" stroke-width="1.8037" stroke-miterlimit="10" stroke-linecap="round" stroke-linejoin="round"/>
<path d="M118.973 248.371C118.539 247.031 118.161 245.822 117.851 244.792C116.97 241.821 116.021 238.812 115.202 235.761C112.343 225.079 111.077 213.771 119.929 201.179C120.357 200.565 120.81 199.945 121.269 199.331C123.371 196.465 125.697 193.593 128.086 190.814C136.633 196.254 142.439 205.683 142.799 216.575C143.295 231.735 133.079 244.755 118.973 248.371Z" stroke="#1A3F56" stroke-width="1.8037" stroke-miterlimit="10" stroke-linecap="round" stroke-linejoin="round"/>
<path d="M231.382 278.557C229.31 275.753 227.208 272.757 225.117 269.544C221.842 264.544 218.561 259.03 215.348 252.957C211.762 246.184 208.847 239.82 206.521 233.871C205.045 230.106 203.81 226.514 202.787 223.09C205.33 222.34 208.003 221.893 210.77 221.8C228.306 221.217 242.982 234.963 243.558 252.492C243.912 263.025 239.086 272.521 231.382 278.557Z" stroke="#1A3F56" stroke-width="1.8037" stroke-miterlimit="10" stroke-linecap="round" stroke-linejoin="round"/>
</svg>
