<svg width="350" height="292" viewBox="0 0 350 292" fill="none" xmlns="http://www.w3.org/2000/svg">
<g clip-path="url(#clip0)">
<path d="M236.886 100.081C236.175 96.1006 237.099 91.8358 239.799 88.3528L282.856 33.7627L289.464 25.4463L328.898 59.4229L319.448 66.2467L308.932 73.9234L301.756 79.1834L276.746 97.3801L270.138 102.214L260.191 109.464C254.862 113.373 247.544 113.231 242.357 109.108C239.373 106.763 237.525 103.493 236.886 100.081Z" fill="#F7CA58"/>
<path d="M260.901 76.7667L277.812 59.5652C282.359 55.016 289.677 54.9449 294.296 59.423L309.003 73.9235L301.827 79.1835L276.746 97.3802L270.138 102.214L261.043 93.2575C256.425 88.7083 256.354 81.3159 260.901 76.7667Z" fill="#FFDF99"/>
<path d="M346.803 31.2042L337.779 23.2432L307.653 56.6511L316.961 64.8965C320.158 67.7398 324.99 67.4554 327.832 64.2568L347.442 42.0796C350.284 38.8809 350 33.9764 346.803 31.2042Z" fill="#EA7F68"/>
<path d="M314.545 2.55868C311.348 -0.284549 306.516 -0.000225306 303.674 3.19841L284.064 25.3045C281.222 28.5032 281.506 33.3367 284.704 36.1799L292.946 43.5012L323.071 10.0932L314.545 2.55868Z" fill="#EA7F68"/>
<path d="M323.071 10.1641L293.017 43.572L307.724 56.5798L337.779 23.1719L323.071 10.1641Z" fill="#F7C0B8"/>
<path d="M259.409 98.4468C259.196 99.5841 258.912 100.65 258.486 101.788L246.265 137.328C245.696 138.963 244.986 140.527 244.204 142.019L226.157 136.333L241.007 92.6182L259.409 98.4468Z" fill="#D4ECF1"/>
<path d="M241.078 92.4765L226.228 136.191L172.3 119.203C158.516 114.867 151.198 99.7978 156.313 86.2925L163.419 67.4561L241.078 92.4765Z" fill="white"/>
<path d="M182.674 91.7651C178.979 90.3435 177.06 86.2208 178.481 82.5246L181.892 73.3552C183.313 69.659 187.434 67.7398 191.129 69.1614C194.823 70.583 196.742 74.7057 195.321 78.4019L191.91 87.5714C190.489 91.2676 186.368 93.1157 182.674 91.7651Z" fill="#1A3F56"/>
<path d="M233.831 109.038C230.136 107.616 228.218 103.493 229.639 99.7971L233.049 90.6277C234.47 86.9315 238.591 85.0123 242.286 86.4339C245.98 87.8555 247.899 91.9782 246.478 95.6744L243.067 104.844C241.646 108.54 237.525 110.388 233.831 109.038Z" fill="#1A3F56"/>
<path d="M203.065 115.862C203.065 115.862 199.726 102.001 195.534 102.214C191.342 102.428 191.839 117.355 202.355 120.127C212.87 122.899 221.184 114.014 219.691 110.744C218.199 107.474 203.065 115.862 203.065 115.862Z" fill="#94CAD4"/>
<path d="M166.829 178.057C166.829 178.057 158.8 239.115 120.575 268.116C116.169 271.528 110.769 273.376 105.512 271.457L105.298 271.386L88.3171 290.009C86.4698 291.999 83.4856 292.497 81.0698 291.217C79.2225 290.222 78.0857 288.374 78.0146 286.384C77.9436 285.673 78.0146 284.962 78.2278 284.252L83.9119 265.486L77.3041 273.092C75.8831 274.727 73.5384 275.153 71.62 274.158C70.1989 273.376 69.2753 271.955 69.2042 270.391C69.2042 270.106 69.2042 269.751 69.2753 269.467C71.691 232.291 73.6805 194.903 107.856 159.434L111.48 160.571L162.353 176.564L166.829 178.057Z" fill="#FFDF99"/>
<path d="M162.353 176.636C145.443 230.799 126.827 225.61 126.827 225.61C121.996 232.861 116.596 237.765 111.835 241.106C106.222 245.015 98.4775 241.035 98.3354 234.14C97.5538 193.624 106.862 169.883 111.409 160.571L162.353 176.636Z" fill="#EA7F68"/>
<path d="M177.203 163.343L169.884 183.033L103.948 160.287L111.835 141.237L177.203 163.343Z" fill="#94CAD4"/>
<path d="M216.991 149.341L212.515 160.074C208.536 169.67 197.879 174.645 187.931 171.518L105.441 145.147C94.4275 141.664 88.6723 129.58 92.8644 118.847L95.2801 112.592L216.991 149.341Z" fill="#94CAD4"/>
<path d="M152.974 46.9844L103.593 63.2619C98.1933 65.0389 93.646 68.8062 90.946 73.8529L83.8408 86.9318C76.5225 100.508 83.2724 117.354 97.9091 122.117L119.296 129.012L157.024 45.9893C155.674 46.2025 154.324 46.5579 152.974 46.9844Z" fill="#F7C0B8"/>
<path d="M163.419 67.4553L259.409 98.4465C261.896 85.8652 254.649 73.1418 242.073 69.1612L170.879 46.8419C166.403 45.4202 161.642 45.1359 157.095 45.9178L119.367 128.869L206.76 157.088C221.468 161.851 237.241 155.169 244.275 141.948L172.3 119.202C158.516 114.866 151.198 99.7971 156.313 86.2917L163.419 67.4553Z" fill="#EA7F68"/>
<path d="M276.106 80.392L281.222 75.2742C285.769 70.6539 293.088 70.6539 297.706 75.132L301.827 79.1836L276.746 97.3803L276.248 96.8828C271.63 92.4047 271.559 85.0123 276.106 80.392Z" fill="#EA7F68"/>
<path d="M2.3447 162.633L72.4726 80.8896C75.0304 77.9042 79.4356 77.6199 82.4198 80.1077L136.49 126.524C139.474 129.082 139.758 133.489 137.272 136.475L67.1437 218.218C64.5859 221.203 60.1807 221.488 57.1965 219L3.12627 172.584C0.142107 170.025 -0.213151 165.547 2.3447 162.633Z" fill="#D4ECF1"/>
<path d="M16.1998 166.258L78.0857 94.0395C80.2172 91.5517 84.054 91.2673 86.5408 93.3998L126.259 127.447C128.745 129.58 129.03 133.418 126.898 135.906L65.0122 208.124C62.8806 210.612 59.0439 210.896 56.5571 208.764L16.8392 174.716C14.3524 172.513 14.0682 168.745 16.1998 166.258Z" fill="white"/>
<path d="M91.7986 180.545L103.806 166.542C104.304 165.974 105.156 165.903 105.725 166.4C106.293 166.898 106.364 167.751 105.867 168.319L93.7881 182.322C93.2907 182.891 92.4381 182.962 91.8697 182.464C91.3723 181.967 91.3013 181.114 91.7986 180.545Z" fill="#1A3F56"/>
<path d="M50.5176 188.079C50.5176 188.008 50.5176 188.008 50.5176 187.937C50.5176 187.368 50.944 186.942 51.4413 186.942L65.5095 186.444L67.0727 200.305C67.1437 200.874 66.7174 201.3 66.22 201.371C65.6516 201.442 65.2253 201.016 65.1543 200.518L63.8043 188.435L51.5124 188.861C51.015 188.932 50.5887 188.577 50.5176 188.079Z" fill="#EA7F68"/>
<path d="M53.4308 199.523C53.3597 199.239 53.4308 198.955 53.6439 198.741L63.6622 187.084C64.0174 186.658 64.6569 186.587 65.0832 187.013C65.5095 187.368 65.5806 188.008 65.1543 188.435L55.136 200.092C54.7807 200.518 54.1413 200.59 53.715 200.163C53.5729 199.95 53.4308 199.737 53.4308 199.523Z" fill="#EA7F68"/>
<path d="M30.3383 195.969L3.12552 172.584C0.141354 170.025 -0.142853 165.618 2.34395 162.633L72.4718 80.8896C75.0297 77.9042 79.4349 77.6199 82.4191 80.1077L136.489 126.524C139.473 129.082 139.758 133.489 137.271 136.475L82.7743 200.092" stroke="#1A3F56" stroke-width="1.8037" stroke-miterlimit="10" stroke-linecap="round" stroke-linejoin="round"/>
<path d="M73.6805 210.684L67.1437 218.218C64.5859 221.204 60.1807 221.488 57.1965 219L48.1019 211.181" stroke="#1A3F56" stroke-width="1.8037" stroke-miterlimit="10" stroke-linecap="round" stroke-linejoin="round"/>
<path d="M147.219 48.9033L103.593 63.2616C98.1933 65.0387 93.646 68.8059 90.946 73.8527L88.246 78.8994" stroke="#1A3F56" stroke-width="1.8037" stroke-miterlimit="10" stroke-linecap="round" stroke-linejoin="round"/>
<path d="M144.661 137.044L206.76 157.089C221.468 161.851 237.241 155.17 244.275 141.949" stroke="#1A3F56" stroke-width="1.8037" stroke-miterlimit="10" stroke-linecap="round" stroke-linejoin="round"/>
<path d="M123.63 91.8363C123.63 95.8879 121.996 99.9395 118.727 102.854L66.8595 149.127L58.9728 156.164L26.0049 115.862L36.4495 110.744L48.173 105.057L56.1307 101.148L83.983 87.5714L91.3723 83.9463L102.456 78.5442C108.425 75.6298 115.53 77.0515 119.935 82.0271C122.422 84.8704 123.63 88.3533 123.63 91.8363Z" fill="#FFDF99"/>
<path d="M95.9907 110.672L76.3094 124.604C71.0516 128.301 63.8043 127.092 60.0386 121.832L48.1019 104.986L56.0597 101.077L83.9119 87.5001L91.3012 83.875L98.6906 94.3239C102.456 99.6549 101.248 106.905 95.9907 110.672Z" fill="#F7CA58"/>
<path d="M81.6383 104.417L75.741 108.611C70.4832 112.307 63.2359 111.099 59.4702 105.839L56.1307 101.148L83.983 87.5713L84.4093 88.1399C88.104 93.3999 86.8961 100.65 81.6383 104.417Z" fill="#EA7F68"/>
<path d="M64.3017 145.929L69.1332 179.337L65.2253 179.763C59.8965 180.332 54.8518 177.275 52.8624 172.371L45.9704 155.525L64.3017 145.929Z" fill="#F7C0B8"/>
<path d="M38.7231 112.663C36.0942 109.322 31.2627 108.753 27.9233 111.383L4.76047 129.793C1.42104 132.423 0.85263 137.257 3.48154 140.597L10.4446 149.411L46.1835 122.187L38.7231 112.663Z" fill="#EA7F68"/>
<path d="M46.2546 122.188L10.4446 149.411L22.6655 164.765L58.4044 137.541L46.2546 122.188Z" fill="#F7C0B8"/>
<path d="M65.4385 146.426L58.4044 137.541L22.6655 164.765L30.268 174.29C32.8969 177.631 37.7284 178.199 41.0678 175.569L64.2306 157.23C67.57 154.6 68.0674 149.767 65.4385 146.426Z" fill="#EA7F68"/>
<path d="M102.172 117.639L74.3199 142.446" stroke="#1A3F56" stroke-width="1.8037" stroke-miterlimit="10" stroke-linecap="round" stroke-linejoin="round"/>
<path d="M41.1389 108.469L48.173 105.057L56.1307 101.148L83.9829 87.5714L91.3723 83.9463L102.456 78.5442C108.425 75.6298 115.53 77.0515 119.935 82.0271C122.422 84.8704 123.63 88.3533 123.63 91.8363C123.63 95.8879 121.996 99.9395 118.727 102.854L108.922 111.597" stroke="#1A3F56" stroke-width="1.8037" stroke-miterlimit="10" stroke-linecap="round" stroke-linejoin="round"/>
<path d="M46.2546 122.187L38.7231 112.663C36.0942 109.322 31.2627 108.753 27.9233 111.383L4.68942 129.793C1.35 132.423 0.781585 137.257 3.41049 140.597" stroke="#1A3F56" stroke-width="1.8037" stroke-miterlimit="10" stroke-linecap="round" stroke-linejoin="round"/>
<path d="M58.4044 137.542L53.0045 130.718" stroke="#1A3F56" stroke-width="1.8037" stroke-miterlimit="10" stroke-linecap="round" stroke-linejoin="round"/>
<path d="M18.8287 160.998L22.5234 165.263L30.4811 174.503C33.2521 177.702 38.0836 178.057 41.352 175.285L48.8124 168.817" stroke="#1A3F56" stroke-width="1.8037" stroke-miterlimit="10" stroke-linecap="round" stroke-linejoin="round"/>
<path d="M40.6415 126.382L16.7682 144.578" stroke="#1A3F56" stroke-width="1.8037" stroke-miterlimit="10" stroke-linecap="round" stroke-linejoin="round"/>
<path d="M26.7154 161.709L53.6439 141.237" stroke="#1A3F56" stroke-width="1.8037" stroke-miterlimit="10" stroke-linecap="round" stroke-linejoin="round"/>
<path d="M154.253 51.7471L127.893 109.82" stroke="#1A3F56" stroke-width="1.8037" stroke-miterlimit="10" stroke-linecap="round" stroke-linejoin="round"/>
<path d="M93.8591 87.4287L98.7617 94.3946C102.456 99.6546 101.248 106.905 95.9907 110.672L76.3094 124.604C71.0516 128.3 63.8043 127.092 60.0386 121.832L50.944 108.966" stroke="#1A3F56" stroke-width="1.8037" stroke-miterlimit="10" stroke-linecap="round" stroke-linejoin="round"/>
<path d="M173.863 172.371L169.884 183.033L119.225 165.547" stroke="#1A3F56" stroke-width="1.8037" stroke-miterlimit="10" stroke-linecap="round" stroke-linejoin="round"/>
<path d="M211.592 162.064C207.044 170.381 197.168 174.432 187.931 171.518L132.156 153.677" stroke="#1A3F56" stroke-width="1.8037" stroke-miterlimit="10" stroke-linecap="round" stroke-linejoin="round"/>
<path d="M264.738 106.123L270.067 102.214L276.675 97.3805L301.685 79.1838L308.861 73.9238L319.377 66.2471C322.219 67.2422 325.558 66.5314 327.69 64.1147L347.442 42.0796C350.284 38.881 350 34.0475 346.803 31.2043L337.85 23.2432L323.143 10.1643L314.616 2.55868C311.419 -0.284549 306.587 -0.000225386 303.745 3.19841L284.135 25.3045C282.004 27.7213 281.648 31.0621 282.927 33.7632L260.049 62.8352" stroke="#1A3F56" stroke-width="1.8037" stroke-miterlimit="10" stroke-linecap="round" stroke-linejoin="round"/>
<path d="M288.611 40.0898L319.519 66.3187" stroke="#1A3F56" stroke-width="1.8037" stroke-miterlimit="10" stroke-linecap="round" stroke-linejoin="round"/>
<path d="M265.022 72.5732L277.812 59.6365C282.359 55.0873 289.677 55.0162 294.296 59.4943L309.003 73.9948" stroke="#1A3F56" stroke-width="1.8037" stroke-miterlimit="10" stroke-linecap="round" stroke-linejoin="round"/>
<path d="M170.879 46.8418L242.073 69.1612C254.649 73.1417 261.967 85.8652 259.409 98.4465C259.196 99.5838 258.912 100.65 258.486 101.787L246.265 137.328" stroke="#1A3F56" stroke-width="1.8037" stroke-miterlimit="10" stroke-linecap="round" stroke-linejoin="round"/>
<path d="M321.366 12.0127L294.793 41.5112" stroke="#1A3F56" stroke-width="1.8037" stroke-miterlimit="10" stroke-linecap="round" stroke-linejoin="round"/>
<path d="M309.714 54.3054L335.363 25.873" stroke="#1A3F56" stroke-width="1.8037" stroke-miterlimit="10" stroke-linecap="round" stroke-linejoin="round"/>
<path d="M297.422 10.3779L314.332 39.5211L310.851 41.3692C306.09 43.857 300.335 42.9329 296.569 39.0946L283.851 26.0157L297.422 10.3779Z" fill="#F7C0B8"/>
<path d="M300.619 15.8506L314.332 39.5205L310.851 41.3686C306.09 43.8564 300.335 42.9324 296.569 39.094L283.851 26.0151" stroke="#1A3F56" stroke-width="1.8037" stroke-miterlimit="10" stroke-linecap="round" stroke-linejoin="round"/>
</g>
<defs>
<clipPath id="clip0">
<rect width="350" height="292" fill="white"/>
</clipPath>
</defs>
</svg>
